<?xml version="1.0" encoding="UTF-8"?>
<svg width="17px" height="17px" viewBox="0 0 17 17" version="1.1" xmlns="http://www.w3.org/2000/svg" xmlns:xlink="http://www.w3.org/1999/xlink">
    <title>Assign icon</title>
    <g id="Create-Order" stroke="none" stroke-width="1" fill="none" fill-rule="evenodd">
        <g id="Create-Order---Specific-time-to-come2" transform="translate(-206.000000, -1532.000000)" stroke="#006FBB" stroke-width="1.4">
            <g id="Assign-icon" transform="translate(207.000000, 1533.000000)">
                <path d="M11.6428571,7.65470054 L14.1428571,5.15470054 C15.1428571,3.82136721 14.9761905,2.48803387 13.6428571,1.15470054 C11.6428571,-0.845299462 10.1428571,0.154700538 9.14285714,1.15470054 C8.47619048,1.82136721 7.30952381,2.98803387 5.64285714,4.65470054 C4.64285714,5.65470054 4.80952381,7.15470054 6.14285714,9.15470054" id="Path-2"></path>
                <path d="M6.64285714,13.6547005 L9.14285714,11.1547005 C10.1428571,9.82136721 9.97619048,8.48803387 8.64285714,7.15470054 C6.64285714,5.15470054 5.14285714,6.15470054 4.14285714,7.15470054 C3.47619048,7.82136721 2.30952381,8.98803387 0.642857143,10.6547005 C-0.357142857,11.6547005 -0.19047619,13.1547005 1.14285714,15.1547005" id="Path-2" transform="translate(4.892857, 10.577350) rotate(-180.000000) translate(-4.892857, -10.577350) "></path>
            </g>
        </g>
    </g>
</svg>
