<svg xmlns="http://www.w3.org/2000/svg" width="21" height="19" viewBox="0 0 21 19">
    <path fill="#FFF" fill-rule="nonzero" d="M6.177 9.3c-1.125.035-2.045.478-2.76 1.33H2.02c-.57 0-1.049-.14-1.438-.421C.194 9.929 0 9.519 0 8.979c0-2.443.43-3.664 1.292-3.664.041 0 .192.072.453.218.26.145.599.292 1.015.44.417.15.83.224 1.24.224.465 0 .927-.08 1.385-.239A4.56 4.56 0 0 0 6.177 9.3zm11.49 7.012c0 .83-.254 1.486-.76 1.967-.508.48-1.181.721-2.022.721H5.781c-.84 0-1.514-.24-2.02-.721C3.252 17.798 3 17.142 3 16.312c0-.367.012-.725.036-1.075.025-.35.073-.726.146-1.131s.165-.78.276-1.127c.111-.346.26-.683.448-1.012.188-.328.403-.609.646-.84.243-.232.54-.417.89-.556.351-.138.739-.207 1.162-.207.07 0 .219.074.448.223.23.149.483.315.76.498.278.183.65.35 1.115.498.465.15.934.223 1.406.223.473 0 .941-.074 1.407-.223.465-.148.836-.315 1.114-.498.278-.183.531-.35.76-.498.23-.149.38-.223.449-.223.423 0 .81.069 1.161.207.35.139.648.324.89.556.244.231.459.512.646.84.188.33.337.666.448 1.012.111.346.203.722.276 1.127.073.405.122.782.146 1.131.025.35.037.708.037 1.075zm-11-13.655c0 .734-.26 1.36-.782 1.88-.52.518-1.149.778-1.885.778s-1.365-.26-1.885-.779a2.556 2.556 0 0 1-.782-1.879c0-.733.26-1.36.782-1.878A2.574 2.574 0 0 1 4 0c.736 0 1.365.26 1.885.779.521.519.782 1.145.782 1.878zm7.666 3.986c0 1.1-.39 2.04-1.172 2.819-.78.778-1.723 1.167-2.828 1.167-1.104 0-2.047-.389-2.828-1.167-.781-.779-1.172-1.718-1.172-2.819 0-1.1.391-2.04 1.172-2.818.781-.778 1.724-1.168 2.828-1.168 1.105 0 2.047.39 2.828 1.168.782.779 1.172 1.718 1.172 2.818zm6.334 2.336c0 .54-.195.95-.584 1.23-.389.28-.868.42-1.437.42H17.25c-.715-.85-1.635-1.294-2.76-1.328a4.56 4.56 0 0 0 .791-3.343c.459.16.92.239 1.386.239.41 0 .823-.074 1.24-.223a6.863 6.863 0 0 0 1.015-.441c.26-.146.411-.218.453-.218.861 0 1.292 1.221 1.292 3.664zm-1.334-6.322c0 .734-.26 1.36-.78 1.88-.522.518-1.15.778-1.886.778s-1.365-.26-1.886-.779A2.556 2.556 0 0 1 14 2.657c0-.733.26-1.36.781-1.878A2.574 2.574 0 0 1 16.667 0c.736 0 1.364.26 1.885.779.52.519.781 1.145.781 1.878z"/>
</svg>
