<svg xmlns="http://www.w3.org/2000/svg" width="14" height="14" viewBox="0 0 14 14">
    <path fill="#919EAB" fill-rule="evenodd" d="M12.58 5.6H1.398V3.48a.68.68 0 0 1 .678-.68h.72v1.4h1.397V2.8h5.591v1.4h1.398V2.8h.699a.7.7 0 0 1 .699.7v2.1zm0 6.3c0 .385-.315.7-.699.7H2.097a.7.7 0 0 1-.7-.7V7H12.58v4.9zm-12.535.533c0 .772.67 1.567 1.442 1.567h11.182C13.44 14 14 13.285 14 12.433c0-.273-.022-8.681-.022-9.137 0-1.458-.197-1.896-2.796-1.896V0H9.784v1.4h-5.59V0H2.795v1.4H1.398C.629 1.4 0 2.03 0 2.8l.045 9.633z"/>
</svg>
