<svg width="16" height="16" viewBox="0 0 16 16" fill="none" xmlns="http://www.w3.org/2000/svg">
<path d="M11.5578 1.20654L14.6291 3.76988L13.7758 4.79321L10.7024 2.23121L11.5578 1.20654ZM4.44176 1.20654L5.29643 2.23054L2.22443 4.79321L1.37109 3.76921L4.44176 1.20654ZM7.99976 2.66654C4.68643 2.66654 1.99976 5.35321 1.99976 8.66654C1.99976 11.9799 4.68643 14.6665 7.99976 14.6665C11.3131 14.6665 13.9998 11.9799 13.9998 8.66654C13.9998 5.35321 11.3131 2.66654 7.99976 2.66654ZM7.99976 13.3332C5.42643 13.3332 3.33309 11.2399 3.33309 8.66654C3.33309 6.09321 5.42643 3.99988 7.99976 3.99988C10.5731 3.99988 12.6664 6.09321 12.6664 8.66654C12.6664 11.2399 10.5731 13.3332 7.99976 13.3332Z" fill="#919EAB"/>
<path d="M8.66683 5.3335V8.6735H10.6668L8.00016 11.3335L5.3335 8.6735H7.3335V5.3335H8.66683Z" fill="#919EAB"/>
</svg>
