<svg width="24" height="24" viewBox="0 0 24 24" fill="none" xmlns="http://www.w3.org/2000/svg">
    <path fill-rule="evenodd" clip-rule="evenodd" d="M17.9998 12C17.9998 12.27 17.9798 12.53 17.9498 12.78L19.6198 14.1C19.7798 14.22 19.8198 14.43 19.7198 14.61L18.1198 17.38C18.0198 17.56 17.8098 17.63 17.6298 17.56L15.6398 16.76C15.2298 17.07 14.7798 17.34 14.2898 17.54L13.9898 19.66C13.9698 19.86 13.7998 20 13.5998 20H10.3998C10.1998 20 10.0398 19.86 9.99976 19.66L9.69976 17.54C9.20976 17.34 8.76976 17.08 8.34976 16.76L6.35976 17.56C6.17976 17.62 5.96976 17.56 5.86976 17.38L4.26976 14.61C4.17976 14.44 4.21976 14.22 4.36976 14.1L6.05976 12.78C6.01976 12.53 5.99976 12.26 5.99976 12C5.99976 11.74 6.02976 11.47 6.06976 11.22L4.37976 9.9C4.21976 9.78 4.17976 9.57 4.27976 9.39L5.87976 6.62C5.97976 6.44 6.18976 6.37 6.36976 6.44L8.35976 7.24C8.76976 6.93 9.21976 6.66 9.70976 6.46L10.0098 4.34C10.0398 4.14 10.1998 4 10.3998 4H13.5998C13.7998 4 13.9698 4.14 13.9998 4.34L14.2998 6.46C14.7898 6.66 15.2298 6.92 15.6498 7.24L17.6398 6.44C17.8198 6.38 18.0298 6.44 18.1298 6.62L19.7298 9.39C19.8198 9.56 19.7798 9.78 19.6298 9.9L17.9398 11.22C17.9798 11.47 17.9998 11.73 17.9998 12ZM8.99976 12C8.99976 13.65 10.3498 15 11.9998 15C13.6498 15 14.9998 13.65 14.9998 12C14.9998 10.35 13.6498 9 11.9998 9C10.3498 9 8.99976 10.35 8.99976 12Z" fill="white"/>
</svg>
