<?xml version="1.0" encoding="UTF-8"?>
<svg width="18px" height="18px" viewBox="0 0 18 18" version="1.1" xmlns="http://www.w3.org/2000/svg" xmlns:xlink="http://www.w3.org/1999/xlink">
    <title>Shape</title>
    <g id="Symbols" stroke="none" stroke-width="1" fill="none" fill-rule="evenodd">
        <g id="Side-Pannels/Configuration/Company-Profile-NA" transform="translate(-25.000000, -9.000000)" fill="#FFFFFF" fill-rule="nonzero">
            <path d="M27.25,9 C26.0136715,9 25,10.0136715 25,11.25 L25,22.5 L29.910157,22.5 C30.847657,25.113282 33.3203125,27 36.25,27 C39.9707035,27 43,23.9707035 43,20.25 C43,17.3203125 41.113282,14.847657 38.5,13.910157 L38.5,11.25 C38.5,10.0136715 37.4863285,9 36.25,9 L27.25,9 Z M27.25,10.5 L36.25,10.5 C36.671875,10.5 37,10.828125 37,11.25 L37,13.5761715 C36.7480465,13.546875 36.5078125,13.5 36.25,13.5 C34.1230465,13.5 32.2363285,14.5136715 31,16.0605465 L31,15 L28,15 L28,16.5 L30.6425785,16.5 C30.332032,16.962891 30.103516,17.472657 29.910157,18 L28,18 L28,19.5 L29.5761715,19.5 C29.546875,19.7519535 29.5,19.9921875 29.5,20.25 C29.5,20.5078125 29.546875,20.7480465 29.5761715,21 L26.5,21 L26.5,11.25 C26.5,10.828125 26.828125,10.5 27.25,10.5 Z M28,12 L28,13.5 L31,13.5 L31,12 L28,12 Z M32.5,12 L32.5,13.5 L35.5,13.5 L35.5,12 L32.5,12 Z M36.25,15 C39.15625,15 41.5,17.34375 41.5,20.25 C41.5,23.15625 39.15625,25.5 36.25,25.5 C33.34375,25.5 31,23.15625 31,20.25 C31,17.34375 33.34375,15 36.25,15 Z M36.25,16.5 C35.0136715,16.5 34,17.5136715 34,18.75 C34,19.207032 34.140625,19.628907 34.375,19.9863285 C33.425782,20.5078125 32.722657,21.421875 32.5,22.5 L34.09375,22.5 C34.410157,21.6269535 35.253907,21 36.25,21 C37.2460945,21 38.0898445,21.6269535 38.40625,22.5 L40,22.5 C39.7773445,21.421875 39.0742195,20.5078125 38.125,19.9863285 C38.359375,19.628907 38.5,19.207032 38.5,18.75 C38.5,17.5136715 37.4863285,16.5 36.25,16.5 Z M36.25,18 C36.671875,18 37,18.328125 37,18.75 C37,19.171875 36.671875,19.5 36.25,19.5 C35.828125,19.5 35.5,19.171875 35.5,18.75 C35.5,18.328125 35.828125,18 36.25,18 Z" id="Shape"></path>
        </g>
    </g>
</svg>
