<svg xmlns="http://www.w3.org/2000/svg" viewBox="0 0 17 20">
    <path fill="#FFF" fill-rule="nonzero" d="M15.111 0H1.89A1.896 1.896 0 0 0 0 1.905v13.333c0 1.048.84 1.905 1.889 1.905h3.778L8.5 20l2.833-2.857h3.778A1.902 1.902 0 0 0 17 15.238V1.905C17 .857 16.15 0 15.111 0zM8.5 3.143c1.407 0 2.55 1.152 2.55 2.571 0 1.42-1.143 2.572-2.55 2.572-1.407 0-2.55-1.153-2.55-2.572S7.093 3.143 8.5 3.143zm5.667 10.19H2.833v-.857c0-1.905 3.778-2.952 5.667-2.952 1.889 0 5.667 1.047 5.667 2.952v.857z"/>
</svg>
