<svg xmlns="http://www.w3.org/2000/svg" width="15" height="10" viewBox="0 0 15 10">
    <g fill="#C4CDD5" fill-rule="nonzero">
        <path d="M7.456 7.2C6.095 7.2 4.98 6.12 4.98 4.8c0-1.32 1.114-2.4 2.475-2.4S9.93 3.48 9.93 4.8c0 1.32-1.114 2.4-2.475 2.4zm0-3.6c-.68 0-1.238.54-1.238 1.2 0 .66.557 1.2 1.238 1.2.68 0 1.237-.54 1.237-1.2 0-.66-.556-1.2-1.237-1.2z"/>
        <path d="M7.456 9.6C2.816 9.6.216 5.28.093 5.1a.531.531 0 0 1 0-.6C.217 4.32 2.815 0 7.456 0c4.64 0 7.24 4.32 7.363 4.5.124.18.124.42 0 .6s-2.722 4.5-7.363 4.5zM1.392 4.8c.619.9 2.785 3.6 6.064 3.6 3.28 0 5.445-2.7 6.064-3.6-.62-.9-2.785-3.6-6.064-3.6-3.28 0-5.445 2.7-6.064 3.6z"/>
    </g>
</svg>
