<svg viewBox="0 0 32 29" fill="none"
    xmlns="http://www.w3.org/2000/svg">
    <path fill-rule="evenodd" clip-rule="evenodd" d="M21.9997 0.333008H3.66634V3.66634H18.6663V13.6663H21.9997V20.333C21.9997 22.1755 23.4906 23.6663 25.333 23.6663C27.1755 23.6663 28.6663 22.1755 28.6663 20.333H31.9997V11.4788L27.8851 5.33301H21.9997V0.333008ZM10.333 10.333V13.6663H6.99967H3.66634V10.333H10.333ZM13.6663 5.33301H3.66634V8.66634H13.6663V5.33301ZM0.333008 21.9997C0.333008 17.1163 4.31634 15.333 6.99967 15.333H8.66634V18.6663H6.99967C6.23301 18.6663 3.66634 18.9497 3.66634 21.9997C3.66634 25.1663 6.44967 25.333 6.99967 25.333H8.66634V28.6663H6.99967C4.31634 28.6663 0.333008 26.8997 0.333008 21.9997ZM11.9997 18.6663V15.333H13.6663C16.3497 15.333 20.333 17.1163 20.333 21.9997C20.333 26.8997 16.3497 28.6663 13.6663 28.6663H11.9997V25.333H13.6663C14.433 25.333 16.9997 25.0497 16.9997 21.9997C16.9997 18.833 14.2163 18.6663 13.6663 18.6663H11.9997ZM15.333 23.6663H5.33301V20.333H15.333V23.6663Z" fill="#E87900"/>
</svg>
