<?xml version="1.0" encoding="UTF-8"?>
<svg xmlns="http://www.w3.org/2000/svg" xmlns:xlink="http://www.w3.org/1999/xlink" width="16pt" height="16pt" viewBox="0 0 16 16" version="1.1">
<g id="surface1">
<path style=" stroke:none;fill-rule:nonzero;fill:rgb(76.862745%,80.392157%,83.529412%);fill-opacity:1;" d="M 7.867188 7.265625 C 6.351562 6.875 5.867188 6.464844 5.867188 5.832031 C 5.867188 5.105469 6.539062 4.601562 7.667969 4.601562 C 8.851562 4.601562 9.292969 5.167969 9.332031 6 L 10.804688 6 C 10.761719 4.851562 10.058594 3.800781 8.667969 3.460938 L 8.667969 2 L 6.667969 2 L 6.667969 3.441406 C 5.375 3.71875 4.332031 4.558594 4.332031 5.847656 C 4.332031 7.386719 5.605469 8.152344 7.464844 8.601562 C 9.132812 9 9.464844 9.585938 9.464844 10.207031 C 9.464844 10.667969 9.140625 11.398438 7.667969 11.398438 C 6.292969 11.398438 5.753906 10.785156 5.679688 10 L 4.214844 10 C 4.292969 11.460938 5.386719 12.28125 6.667969 12.554688 L 6.667969 14 L 8.667969 14 L 8.667969 12.566406 C 9.964844 12.320312 11 11.566406 11 10.199219 C 11 8.308594 9.378906 7.660156 7.867188 7.265625 Z M 7.867188 7.265625 "/>
</g>
</svg>
