<svg xmlns="http://www.w3.org/2000/svg" width="17" height="17" viewBox="0 0 17 17">
    <path fill="#FFF" fill-rule="nonzero" d="M4.22 8.7a.861.861 0 0 1 0-1.15.71.71 0 0 1 1.06 0l2.47 2.676V.812C7.75.364 8.086 0 8.5 0s.75.364.75.812v9.414l2.47-2.676a.71.71 0 0 1 1.06 0 .861.861 0 0 1 0 1.15l-3.75 4.062A.72.72 0 0 1 8.5 13a.72.72 0 0 1-.53-.238L4.22 8.7zM16.227 11a.762.762 0 0 0-.772.75v3c0 .414-.338.75-.753.75H2.318a.762.762 0 0 1-.773-.75v-3A.762.762 0 0 0 .773 11a.762.762 0 0 0-.773.75v3c0 .304.061.598.182.876.117.268.284.509.497.715a2.357 2.357 0 0 0 1.64.659h12.383a2.325 2.325 0 0 0 1.628-.662A2.235 2.235 0 0 0 17 14.75v-3a.761.761 0 0 0-.773-.75z"/>
</svg>
