<svg width="20" height="20" viewBox="-2 -2 20 20"  fill="none" xmlns="http://www.w3.org/2000/svg">
<path fill-rule="evenodd" clip-rule="evenodd" d="M2.69854 13.3125C4.13306 14.75 6.00416 15.5 8 15.5C9.99584 15.5 11.8669 14.75 13.3015 13.3125C16.2328 10.375 16.2328 5.625 13.3015 2.6875C11.8669 1.25 9.99584 0.5 8 0.5C6.00416 0.5 4.13306 1.25 2.69854 2.6875C-0.232848 5.625 -0.232848 10.375 2.69854 13.3125ZM3.57173 3.5625C4.75676 2.375 6.31601 1.75 8 1.75C9.68399 1.75 11.2432 2.375 12.4283 3.625C14.8607 6.0625 14.8607 10 12.4283 12.4375C11.2432 13.625 9.68399 14.25 8 14.25C6.31601 14.25 4.75676 13.625 3.57173 12.4375C1.13929 10 1.13929 6 3.57173 3.5625ZM8 11.75C7.62578 11.75 7.3763 11.5 7.3763 11.125V8.625H4.8815C4.50728 8.625 4.2578 8.375 4.2578 8C4.2578 7.625 4.50728 7.375 4.8815 7.375H7.3763V4.875C7.3763 4.5 7.62578 4.25 8 4.25C8.37422 4.25 8.6237 4.5 8.6237 4.875V7.375H11.1185C11.4927 7.375 11.7422 7.625 11.7422 8C11.7422 8.375 11.4927 8.625 11.1185 8.625H8.6237V11.125C8.6237 11.5 8.37422 11.75 8 11.75Z" fill="white"/>
</svg>
