<svg xmlns="http://www.w3.org/2000/svg" width="62" height="62" viewBox="0 0 62 62">
    <path fill="#C4CDD5" d="M31 0c17.12 0 31 13.88 31 31 0 17.12-13.88 31-31 31C13.88 62 0 48.12 0 31 0 13.88 13.88 0 31 0zm0 4.227C16.214 4.227 4.227 16.214 4.227 31S16.214 57.773 31 57.773c7.1 0 13.91-2.821 18.931-7.842 5.021-5.02 7.842-11.83 7.842-18.931C57.773 16.214 45.786 4.227 31 4.227zm.705 14.796c1.167 0 2.113.946 2.113 2.113v8.455h8.455c1.167 0 2.113.946 2.113 2.114 0 1.167-.946 2.113-2.113 2.113h-8.455v8.455c0 1.167-.946 2.113-2.113 2.113-1.168 0-2.114-.946-2.114-2.113v-8.455h-8.455c-1.167 0-2.113-.946-2.113-2.113 0-1.168.946-2.114 2.113-2.114h8.455v-8.455c0-1.167.946-2.113 2.114-2.113z"/>
</svg>
