<?xml version="1.0" encoding="UTF-8"?>
<svg width="20px" height="19px" viewBox="0 0 20 19" version="1.1" xmlns="http://www.w3.org/2000/svg" xmlns:xlink="http://www.w3.org/1999/xlink">
    <title>E8DF758F-96C7-4A7B-8C28-BC07DF417747</title>
    <g id="System-Configuration" stroke="none" stroke-width="1" fill="none" fill-rule="evenodd">
        <g id="Settings-3rd-Party-Hauler-details" transform="translate(-24.000000, -729.000000)" fill="#FFFFFF" fill-rule="nonzero">
            <g id="Side-Pannels/Configuration-Panel" transform="translate(0.000000, -0.000000)">
                <g id="Side-Pannels/Configuration/Billable-Items-Copy-7" transform="translate(0.000000, 720.000000)">
                    <path d="M36.3520272,9.09997561 C36.8299359,8.86724266 37.4082054,9.05437895 37.6567179,9.52079477 L37.6567179,9.52079477 L38.8830315,11.8177264 L41.4608708,12.2670435 C41.9856145,12.3591868 42.3430902,12.847451 42.2685365,13.3718126 L42.2685365,13.3718126 L41.9024584,15.9470738 L43.7223346,17.8165368 C44.0922359,18.1974589 44.0922359,18.8016146 43.7242462,19.1815868 L43.7242462,19.1815868 L41.9043701,21.0510498 L42.2704481,23.6263111 C42.3450018,24.1506726 41.9875262,24.6398868 41.4627825,24.7310801 L41.4627825,24.7310801 L38.8849431,25.1803972 L37.6586295,27.4773289 C37.4082054,27.9446946 36.8308917,28.1318309 36.3520272,27.8990979 L36.3520272,27.8990979 L34.0007166,26.7572816 L31.6503618,27.9000479 C31.1714974,28.1327808 30.5932279,27.9456445 30.3437596,27.4782788 L30.3437596,27.4782788 L29.1174459,25.1813471 L26.5396066,24.73203 C26.0148629,24.6398868 25.6573872,24.1516226 25.731941,23.627261 L25.731941,23.627261 L26.098019,21.0519997 L24.2781428,19.1825367 C23.9072857,18.8016146 23.9072857,18.1984088 24.2781428,17.8174868 L24.2781428,17.8174868 L26.098019,15.9480238 L25.731941,13.3727625 C25.6573872,12.8484009 26.0148629,12.3601367 26.5396066,12.2689434 L26.5396066,12.2689434 L29.1174459,11.8196263 L30.3437596,9.5217447 C30.5932279,9.05437895 31.1714974,8.86724266 31.649406,9.09997561 L31.649406,9.09997561 L34.0007166,10.2417919 Z M36.0332031,18.8295898 C35.1762695,18.8295898 35.1762695,18.8295898 34.6240234,19.3564453 C34.133138,19.8247613 34.133138,19.8247613 34.0785952,20.5488643 L34.0717773,20.7338867 L34.0717773,21.1972656 C34.0717773,22.0668945 34.0717773,22.0668945 34.614502,22.5969238 C35.1572266,23.1269531 35.1572266,23.1269531 36.0458984,23.1269531 C36.9345703,23.1269531 36.9345703,23.1269531 37.4645996,22.5905762 C37.9357368,22.1137967 37.9357368,22.1137967 37.9880853,21.408815 L37.9946289,21.2290039 L37.9946289,20.7783203 C37.9946289,19.8833008 37.9946289,19.8833008 37.4455566,19.3564453 C36.8964844,18.8295898 36.8964844,18.8295898 36.0332031,18.8295898 Z M35.6333008,14.6274414 L31.1201172,21.8510742 L31.9135742,22.3081055 L36.4267578,15.0844727 L35.6333008,14.6274414 Z M36.0332031,19.7563477 C36.4204102,19.7563477 36.4204102,19.7563477 36.6679688,20.0229492 C36.8742676,20.2451172 36.8742676,20.2451172 36.9086507,20.5907118 L36.9155273,20.7338867 L36.9155273,21.2099609 C36.9155273,21.6860352 36.9155273,21.6860352 36.6838379,21.9494629 C36.4521484,22.2128906 36.4521484,22.2128906 36.0458984,22.2128906 C35.6523438,22.2128906 35.6523438,22.2128906 35.4016113,21.9367676 C35.1926676,21.706665 35.1926676,21.706665 35.1578437,21.3685642 L35.1508789,21.2290039 L35.1508789,20.7592773 C35.1508789,20.2895508 35.1508789,20.2895508 35.3952637,20.0229492 C35.6396484,19.7563477 35.6396484,19.7563477 36.0332031,19.7563477 Z M31.5834961,13.6245117 C30.7075195,13.6245117 30.7075195,13.6245117 30.1679688,14.1608887 C29.6883681,14.6376682 29.6883681,14.6376682 29.6350791,15.3526807 L29.628418,15.5351562 L29.628418,15.9858398 C29.628418,16.8745117 29.628418,16.8745117 30.1838379,17.3981934 C30.7392578,17.921875 30.7392578,17.921875 31.5961914,17.921875 C32.472168,17.921875 32.472168,17.921875 33.0085449,17.3886719 C33.4853244,16.9147135 33.4853244,16.9147135 33.5382999,16.2050299 L33.5449219,16.0239258 L33.5449219,15.5668945 C33.5449219,14.6972656 33.5449219,14.6972656 33.0085449,14.1608887 C32.472168,13.6245117 32.472168,13.6245117 31.5834961,13.6245117 Z M31.5834961,14.5512695 C31.9833984,14.5512695 31.9833984,14.5512695 32.2277832,14.8242188 C32.4314372,15.0516764 32.4314372,15.0516764 32.4653795,15.3937446 L32.472168,15.5351562 L32.472168,15.9985352 C32.472168,16.4619141 32.472168,16.4619141 32.230957,16.7316895 C31.9897461,17.0014648 31.9897461,17.0014648 31.5961914,17.0014648 C31.1962891,17.0014648 31.1962891,17.0014648 30.9519043,16.7316895 C30.7482503,16.5068766 30.7482503,16.5068766 30.714308,16.1652493 L30.7075195,16.0239258 L30.7075195,15.5541992 C30.7075195,15.1035156 30.7075195,15.1035156 30.9455566,14.8273926 C31.1835938,14.5512695 31.1835938,14.5512695 31.5834961,14.5512695 Z" id="promos-icon-white"></path>
                </g>
            </g>
        </g>
    </g>
</svg>
