<svg width="32" height="32" viewBox="0 0 32 32" fill="none" xmlns="http://www.w3.org/2000/svg">
<path fill-rule="evenodd" clip-rule="evenodd" d="M7 21H4V30H32V21V12V9H18V12H29V27H7V21Z" fill="#919EAB"/>
<path d="M7 0V2.45455C12.5793 2.45455 15.9024 8.26363 12.8242 12.6164L10.9178 10.8327C12.352 8.11637 10.2357 4.90909 7 4.90909V7.36364L3.06474 3.68182L7 0ZM7 18V15.5455C1.42068 15.5455 -1.90243 9.73636 1.17582 5.38364L3.08223 7.16727C1.64805 9.88364 3.76434 13.0909 7 13.0909V10.6364L10.9353 14.3182L7 18Z" fill="#919EAB"/>
<path d="M13 18H15V24H13V18Z" fill="#919EAB"/>
<path d="M18 15H20V24H18V15Z" fill="#919EAB"/>
<path d="M23 15H25V24H23V15Z" fill="#919EAB"/>
</svg>
