<svg width="20" height="17" viewBox="0 0 20 17" fill="none" xmlns="http://www.w3.org/2000/svg">
<path d="M10 0L0 9H3V17H17V9H20L10 0ZM10 5.75C10.5967 5.75 11.169 5.98705 11.591 6.40901C12.0129 6.83097 12.25 7.40326 12.25 8C12.25 8.59674 12.0129 9.16903 11.591 9.59099C11.169 10.0129 10.5967 10.25 10 10.25C9.40326 10.25 8.83097 10.0129 8.40901 9.59099C7.98705 9.16903 7.75 8.59674 7.75 8C7.75 7.40326 7.98705 6.83097 8.40901 6.40901C8.83097 5.98705 9.40326 5.75 10 5.75ZM10 12C11.5 12 14.5 12.75 14.5 14.25V15H5.5V14.25C5.5 12.75 8.5 12 10 12Z" fill="white"/>
</svg>
