<svg xmlns="http://www.w3.org/2000/svg" width="22" height="22" viewBox="0 0 22 22">
    <path fill="#C3C2C0" fill-rule="nonzero" d="M12.615 7.097a4.214 4.214 0 0 0-5.52 2.285 4.23 4.23 0 0 0 3.903 5.844 4.214 4.214 0 0 0 3.904-2.61 4.23 4.23 0 0 0-2.287-5.519zm1.107 5.03a2.941 2.941 0 0 1-3.851 1.596 2.952 2.952 0 0 1-1.596-3.852 2.94 2.94 0 0 1 3.852-1.595 2.951 2.951 0 0 1 1.595 3.852zm5.574-1.553L22 8.597 20.476 4.92l-3.31.515a8.2 8.2 0 0 0-.601-.604l.513-3.309L13.403 0l-1.978 2.702a8.5 8.5 0 0 0-.851 0L8.598 0 4.92 1.523l.512 3.31c-.21.189-.412.39-.602.6L1.523 4.92 0 8.597l2.702 1.977a8.342 8.342 0 0 0 0 .852L0 13.402l1.523 3.678 3.309-.513c.191.212.392.413.6.602l-.511 3.308L8.596 22l1.978-2.702c.282.015.566.014.85 0L13.402 22l3.677-1.523-.513-3.309c.21-.19.413-.39.603-.601l3.309.513 1.522-3.677-2.702-1.977a8.34 8.34 0 0 0 0-.852zm.385 5.09l-3.027-.47-.23.28a6.893 6.893 0 0 1-.948.948l-.282.23.47 3.029-1.824.756-1.81-2.474-.363.036c-.44.044-.89.045-1.338.001l-.362-.035-1.808 2.472-1.824-.756.469-3.027-.281-.23a7.009 7.009 0 0 1-.948-.95l-.231-.28-3.026.47-.755-1.824 2.471-1.809L4 11.67a6.996 6.996 0 0 1 0-1.341l.035-.362-2.471-1.808.755-1.824 3.027.47.231-.281c.283-.344.601-.663.947-.947l.28-.23-.468-3.029 1.824-.755 1.808 2.473L10.33 4a7 7 0 0 1 1.342 0l.361.033 1.809-2.471 1.822.755-.47 3.026.28.231c.346.285.665.605.95.95l.23.281 3.027-.47.756 1.824-2.475 1.81.036.363c.044.437.045.887.002 1.34l-.034.361 2.47 1.808-.754 1.823z"/>
</svg>
