<svg viewBox="0 0 64 64" fill="none"
    xmlns="http://www.w3.org/2000/svg">
    <path fill="currentColor" fill-rule="evenodd" clip-rule="evenodd" d="M5.33301 16.0003V10.667H37.333V16.0003H5.33301ZM5.33301 26.667V21.3337H37.333V26.667H5.33301ZM5.33301 37.3337V32.0003H26.6663V37.3337H5.33301ZM48.0009 28V24L42.0009 30L48.0009 36V32C52.9342 32 56.1609 37.2267 53.9742 41.6533L56.8809 44.56C61.5742 37.4667 56.5075 28 48.0009 28ZM48.0009 49.3333V53.3333L54.0009 47.3333L48.0009 41.3333V45.3333C43.0675 45.3333 39.8409 40.1067 42.0275 35.68L39.1209 32.7733C34.4275 39.8667 39.4942 49.3333 48.0009 49.3333Z"/>
</svg>
