<svg xmlns="http://www.w3.org/2000/svg" width="20" height="21" viewBox="0 0 20 21">
    <path fill="#919EAB" fill-rule="nonzero" d="M14.958 10.65c.025-.208.042-.425.042-.65a4.11 4.11 0 0 0-.05-.65l1.408-1.1a.344.344 0 0 0 .084-.425l-1.334-2.308a.339.339 0 0 0-.408-.15l-1.658.666a4.882 4.882 0 0 0-1.125-.65l-.25-1.766a.333.333 0 0 0-.334-.284H8.667c-.167 0-.3.117-.325.284l-.25 1.766a5.013 5.013 0 0 0-1.125.65l-1.659-.666a.33.33 0 0 0-.408.15L3.567 7.825a.323.323 0 0 0 .083.425l1.408 1.1A4.189 4.189 0 0 0 5 10c0 .217.017.442.05.65l-1.408 1.1a.344.344 0 0 0-.084.425l1.334 2.308c.083.15.258.2.408.15l1.658-.666c.35.266.717.483 1.125.65l.25 1.766a.339.339 0 0 0 .334.284h2.666a.318.318 0 0 0 .325-.284l.25-1.766a5.013 5.013 0 0 0 1.125-.65l1.659.666a.33.33 0 0 0 .408-.15l1.333-2.308a.323.323 0 0 0-.083-.425l-1.392-1.1zM10 12.5A2.507 2.507 0 0 1 7.5 10c0-1.375 1.125-2.5 2.5-2.5s2.5 1.125 2.5 2.5-1.125 2.5-2.5 2.5z"/>
</svg>
