<?xml version="1.0" encoding="UTF-8"?>
<svg width="119px" height="30px" viewBox="0 0 119 30" version="1.1" xmlns="http://www.w3.org/2000/svg" xmlns:xlink="http://www.w3.org/1999/xlink">
    <title>emptyl-truck-to-scale-icon</title>
    <g id="♻️-Yard-Operation" stroke="none" stroke-width="1" fill="none" fill-rule="evenodd">
        <g id="emptyl-truck-to-scale-icon" fill="#FFFFFF">
            <g id="Group-5" transform="translate(30.000000, 15.000000) scale(-1, 1) translate(-30.000000, -15.000000) ">
                <path d="M15.9373761,25.7138562 L15.8463201,25.7138562 C15.3592321,25.7138562 14.9643201,25.3189442 14.9643201,24.8318562 C14.9643201,24.3448802 15.3592321,23.9498562 15.8463201,23.9498562 L15.9373761,23.9498562 C16.0817441,23.9498562 16.1991201,23.8332642 16.1991201,23.6897922 L16.1991201,8.66980807 C16.1991201,8.52633607 16.0817441,8.40963207 15.9373761,8.40963207 L6.91656006,8.40963207 C6.83502406,8.40963207 6.75684806,8.44928007 6.70734406,8.51569607 L1.81619202,15.0971521 C1.78270402,15.1420641 1.76400002,15.1975041 1.76400002,15.2522721 L1.76400002,23.6897922 C1.76400002,23.8332642 1.88148802,23.9498562 2.02585602,23.9498562 L3.55163203,23.9498562 C4.03872003,23.9498562 4.43363204,24.3448802 4.43363204,24.8318562 C4.43363204,25.3189442 4.03872003,25.7138562 3.55163203,25.7138562 L2.02585602,25.7138562 C0.908880008,25.7138562 4.08562073e-14,24.8057602 4.08562073e-14,23.6897922 L4.08562073e-14,15.2522721 C4.08562073e-14,14.8217441 0.142016001,14.3932321 0.399728003,14.0455841 L5.29233605,7.46222406 C5.67403205,6.95049606 6.28084805,6.64563206 6.91656006,6.64563206 L15.9373761,6.64563206 C17.0543521,6.64563206 17.9631202,7.55361606 17.9631202,8.66980807 L17.9631202,23.6897922 C17.9631202,24.8057602 17.0543521,25.7138562 15.9373761,25.7138562" id="Fill-104"></path>
                <path d="M8.01830407,17.0036161 L3.20118403,17.0036161 C2.71420802,17.0036161 2.31918402,16.6087041 2.31918402,16.1216161 C2.31918402,15.6345281 2.71420802,15.2396161 3.20118403,15.2396161 L8.01830407,15.2396161 C8.41724807,15.2396161 8.74182407,14.9150401 8.74182407,14.5160961 L8.74182407,9.58227208 C8.74182407,9.09518408 9.13673608,8.70027207 9.62382408,8.70027207 C10.1108001,8.70027207 10.5058241,9.09518408 10.5058241,9.58227208 L10.5058241,14.5160961 C10.5058241,15.8877601 9.38996808,17.0036161 8.01830407,17.0036161" id="Fill-105"></path>
                <path d="M43.8701764,25.7611202 C43.3832004,25.7611202 42.9881764,25.3660962 42.9881764,24.8791202 C42.9881764,24.3921442 43.3832004,23.9971202 43.8701764,23.9971202 L46.1832004,23.9971202 L46.1832004,1.76400002 L20.6500002,1.76400002 L20.6500002,23.9971202 L31.5792963,23.9971202 C32.0662723,23.9971202 32.4612963,24.3921442 32.4612963,24.8791202 C32.4612963,25.3660962 32.0662723,25.7611202 31.5792963,25.7611202 L20.4512002,25.7611202 C19.5881282,25.7611202 18.8860002,25.0589922 18.8860002,24.1959202 L18.8860002,1.56520001 C18.8860002,0.702128006 19.5881282,1.0658141e-14 20.4512002,1.0658141e-14 L46.3821124,1.0658141e-14 C47.2450724,1.0658141e-14 47.9472004,0.702128006 47.9472004,1.56520001 L47.9472004,24.1959202 C47.9472004,25.0589922 47.2450724,25.7611202 46.3821124,25.7611202 L43.8701764,25.7611202 Z" id="Fill-106"></path>
                <path d="M9.69886408,21.4995202 C7.85803207,21.4995202 6.36036805,22.9972962 6.36036805,24.8380162 C6.36036805,26.6788482 7.85803207,28.1762882 9.69886408,28.1762882 C11.5395841,28.1762882 13.0373601,26.6788482 13.0373601,24.8380162 C13.0373601,22.9972962 11.5395841,21.4995202 9.69886408,21.4995202 Z M9.69886408,29.9402883 C6.88531206,29.9402883 4.59636804,27.6513442 4.59636804,24.8380162 C4.59636804,22.0244642 6.88531206,19.7355202 9.69886408,19.7355202 C12.5124161,19.7355202 14.8013601,22.0244642 14.8013601,24.8380162 C14.8013601,27.6513442 12.5124161,29.9402883 9.69886408,29.9402883 L9.69886408,29.9402883 Z" id="Fill-107"></path>
                <path d="M37.7247363,21.4995202 C35.8840163,21.4995202 34.3862403,22.9972962 34.3862403,24.8380162 C34.3862403,26.6788482 35.8840163,28.1762882 37.7247363,28.1762882 C39.5655683,28.1762882 41.0630083,26.6788482 41.0630083,24.8380162 C41.0630083,22.9972962 39.5655683,21.4995202 37.7247363,21.4995202 Z M37.7247363,29.9402883 C34.9111843,29.9402883 32.6222403,27.6513442 32.6222403,24.8380162 C32.6222403,22.0244642 34.9111843,19.7355202 37.7247363,19.7355202 C40.5380643,19.7355202 42.8270084,22.0244642 42.8270084,24.8380162 C42.8270084,27.6513442 40.5380643,29.9402883 37.7247363,29.9402883 L37.7247363,29.9402883 Z" id="Fill-108"></path>
                <path d="M54.1503205,4.78161604 L49.6671844,4.78161604 C49.1802084,4.78161604 48.7851844,4.38681604 48.7851844,3.89961603 C48.7851844,3.41252803 49.1802084,3.01761603 49.6671844,3.01761603 L54.1503205,3.01761603 C54.6372965,3.01761603 55.0323205,3.41252803 55.0323205,3.89961603 C55.0323205,4.38681604 54.6372965,4.78161604 54.1503205,4.78161604" id="Fill-109"></path>
                <path d="M58.2434721,8.76400002 L49.882,8.76400002 C49.395024,8.76400002 49,8.36920001 49,7.88200001 C49,7.394912 49.395024,7 49.882,7 L58.2434721,7 C58.7305601,7 59.1254721,7.394912 59.1254721,7.88200001 C59.1254721,8.36920001 58.7305601,8.76400002 58.2434721,8.76400002" id="Fill-110"></path>
                <path d="M52.0301604,13.5780961 L49.6671844,13.5780961 C49.1802084,13.5780961 48.7851844,13.1832961 48.7851844,12.6960961 C48.7851844,12.2090081 49.1802084,11.8140961 49.6671844,11.8140961 L52.0301604,11.8140961 C52.5171364,11.8140961 52.9121605,12.2090081 52.9121605,12.6960961 C52.9121605,13.1832961 52.5171364,13.5780961 52.0301604,13.5780961" id="Fill-111"></path>
            </g>
            <g id="Group-9" transform="translate(88.000000, 0.000000)" fill-rule="nonzero">
                <path d="M25.7104023,0 L4.57600042,0 C2.04999099,0.00303160028 0.00303160028,2.04999099 0,4.57600042 L0,24.7104023 C0.00303160028,27.2364117 2.04999099,29.2833711 4.57600042,29.2864027 L25.7104023,29.2864027 C28.2364117,29.2833711 30.2833711,27.2364117 30.2864027,24.7104023 L30.2864027,4.57600042 C30.2833711,2.04999099 28.2364117,0.00303160028 25.7104023,0 Z M28.4560025,24.7104023 C28.4560025,26.2267744 27.2267744,27.4560025 25.7104023,27.4560025 L4.57600042,27.4560025 C3.05962828,27.4560025 1.83040017,26.2267744 1.83040017,24.7104023 L1.83040017,4.57600042 C1.83040017,3.05962828 3.05962828,1.83040017 4.57600042,1.83040017 L25.7104023,1.83040017 C27.2267744,1.83040017 28.4560025,3.05962828 28.4560025,4.57600042 L28.4560025,24.7104023 Z" id="Shape"></path>
                <g id="Group-15" transform="translate(6.000000, 9.000000)">
                    <path d="M9.30850005,1.83040807 L9.41832406,1.83040807 L9.43845846,4.4408921e-15 L9.30850005,4.4408921e-15 C8.6938288,-0.000678500163 8.07995834,0.0433655039 7.47169348,0.131796712 L7.73618631,1.94297768 C8.25693516,1.86781687 8.7823744,1.83023647 9.30850005,1.83040807 Z" id="Path"></path>
                    <path d="M6.10529976,2.32004011 L5.54611251,0.581159953 C4.91553965,0.783075972 4.30321359,1.03813079 3.71571234,1.34352162 L4.55952682,2.96800177 C5.05573686,2.70911455 5.57282491,2.49238373 6.10529976,2.32004011 Z" id="Path"></path>
                    <path d="M11.398817,0.171150316 L11.096801,1.97684008 C13.1257996,2.30619771 14.9992714,3.266929 16.4507215,4.72244033 L14.2341069,9.15200874 L11.0180938,9.15200874 L13.7307469,5.08394437 L12.2078539,4.06807227 L8.81886801,9.15200874 L4.3828932,9.15200874 L2.1699394,4.71969473 C2.47481543,4.4096135 2.80177066,4.12212628 3.14828829,3.85940665 L2.03632019,2.40240812 C1.40460333,2.87030416 0.834490876,3.41610661 0.339539231,4.02688827 L-1.15463195e-13,4.48448831 L3.2517059,10.9824089 L15.3652942,10.9824089 L18.6188305,4.46984511 L18.2692241,4.01224507 C16.5141563,1.94904088 14.0756629,0.585735954 11.398817,0.171150316 Z" id="Path"></path>
                </g>
            </g>
            <g id="arrow-left-circle" transform="translate(74.000000, 15.500000) scale(-1, 1) translate(-74.000000, -15.500000) translate(68.000000, 10.000000)" fill-rule="nonzero">
                <path d="M11.0497135,4.66599972 L2.58091404,4.66599972 L5.87851384,1.36999992 C6.19051382,1.05799994 6.19051382,0.553999967 5.87851384,0.233999986 C5.56571386,-0.0779999954 5.05931389,-0.0779999954 4.74651391,0.233999986 L0.220914177,4.76199972 C0.0297141889,4.9539997 -0.0302858076,5.21799969 0.0137141898,5.46599967 C-0.0302858076,5.71399966 0.0297141889,5.97799964 0.220914177,6.16999963 L4.74651391,10.6979994 C5.05931389,11.0099993 5.56571386,11.0099993 5.87851384,10.6979994 C6.19051382,10.3859994 6.19051382,9.87399941 5.87851384,9.56199943 L2.58091404,6.26599963 L11.0497135,6.26599963 C11.4913135,6.26599963 11.8497135,5.90599965 11.8497135,5.46599967 C11.8497135,5.0259997 11.4913135,4.66599972 11.0497135,4.66599972 L11.0497135,4.66599972 Z"></path>
            </g>
        </g>
    </g>
</svg>