<?xml version="1.0" encoding="UTF-8"?>
<svg width="117px" height="30px" viewBox="0 0 117 30" version="1.1" xmlns="http://www.w3.org/2000/svg" xmlns:xlink="http://www.w3.org/1999/xlink">
    <title>emptyl-truck-bp-scale-icon</title>
    <g id="♻️-Yard-Operation" stroke="none" stroke-width="1" fill="none" fill-rule="evenodd">
        <g id="Group-11" fill="#FFFFFF">
            <path d="M70.5652023,14.6950238 L73.8427275,11.3785218 C74.1528282,11.064581 74.1528282,10.557446 73.8427275,10.2354555 C73.5318318,9.92151482 73.0285146,9.92151482 72.7176188,10.2354555 L68.2195693,14.7916209 C68.0295333,14.9848152 67.9698986,15.2504574 68.0136307,15.5 C67.9698986,15.7495426 68.0295333,16.0151848 68.2195693,16.2083791 L72.7176188,20.7645445 C73.0285146,21.0784852 73.5318318,21.0784852 73.8427275,20.7645445 C74.1528282,20.4506037 74.1528282,19.935419 73.8427275,19.6214782 L70.5652023,16.3049762 L116.20487,16.3049762 C116.643782,16.3049762 117,15.9427369 117,15.5 C117,15.0572631 116.643782,14.6950238 116.20487,14.6950238 L70.5652023,14.6950238 Z" id="arrow-left-circle" fill-rule="nonzero" transform="translate(92.500000, 15.500000) scale(-1, 1) translate(-92.500000, -15.500000) "></path>
            <g id="Group-5" transform="translate(29.500000, 15.000000) scale(-1, 1) translate(-29.500000, -15.000000) ">
                <path d="M15.9373761,25.7138562 L15.8463201,25.7138562 C15.3592321,25.7138562 14.9643201,25.3189442 14.9643201,24.8318562 C14.9643201,24.3448802 15.3592321,23.9498562 15.8463201,23.9498562 L15.9373761,23.9498562 C16.0817441,23.9498562 16.1991201,23.8332642 16.1991201,23.6897922 L16.1991201,8.66980807 C16.1991201,8.52633607 16.0817441,8.40963207 15.9373761,8.40963207 L6.91656006,8.40963207 C6.83502406,8.40963207 6.75684806,8.44928007 6.70734406,8.51569607 L1.81619202,15.0971521 C1.78270402,15.1420641 1.76400002,15.1975041 1.76400002,15.2522721 L1.76400002,23.6897922 C1.76400002,23.8332642 1.88148802,23.9498562 2.02585602,23.9498562 L3.55163203,23.9498562 C4.03872003,23.9498562 4.43363204,24.3448802 4.43363204,24.8318562 C4.43363204,25.3189442 4.03872003,25.7138562 3.55163203,25.7138562 L2.02585602,25.7138562 C0.908880008,25.7138562 4.08562073e-14,24.8057602 4.08562073e-14,23.6897922 L4.08562073e-14,15.2522721 C4.08562073e-14,14.8217441 0.142016001,14.3932321 0.399728003,14.0455841 L5.29233605,7.46222406 C5.67403205,6.95049606 6.28084805,6.64563206 6.91656006,6.64563206 L15.9373761,6.64563206 C17.0543521,6.64563206 17.9631202,7.55361606 17.9631202,8.66980807 L17.9631202,23.6897922 C17.9631202,24.8057602 17.0543521,25.7138562 15.9373761,25.7138562" id="Fill-104"></path>
                <path d="M8.01830407,17.0036161 L3.20118403,17.0036161 C2.71420802,17.0036161 2.31918402,16.6087041 2.31918402,16.1216161 C2.31918402,15.6345281 2.71420802,15.2396161 3.20118403,15.2396161 L8.01830407,15.2396161 C8.41724807,15.2396161 8.74182407,14.9150401 8.74182407,14.5160961 L8.74182407,9.58227208 C8.74182407,9.09518408 9.13673608,8.70027207 9.62382408,8.70027207 C10.1108001,8.70027207 10.5058241,9.09518408 10.5058241,9.58227208 L10.5058241,14.5160961 C10.5058241,15.8877601 9.38996808,17.0036161 8.01830407,17.0036161" id="Fill-105"></path>
                <path d="M43.8701764,25.7611202 C43.3832004,25.7611202 42.9881764,25.3660962 42.9881764,24.8791202 C42.9881764,24.3921442 43.3832004,23.9971202 43.8701764,23.9971202 L46.1832004,23.9971202 L46.1832004,1.76400002 L20.6500002,1.76400002 L20.6500002,23.9971202 L31.5792963,23.9971202 C32.0662723,23.9971202 32.4612963,24.3921442 32.4612963,24.8791202 C32.4612963,25.3660962 32.0662723,25.7611202 31.5792963,25.7611202 L20.4512002,25.7611202 C19.5881282,25.7611202 18.8860002,25.0589922 18.8860002,24.1959202 L18.8860002,1.56520001 C18.8860002,0.702128006 19.5881282,1.0658141e-14 20.4512002,1.0658141e-14 L46.3821124,1.0658141e-14 C47.2450724,1.0658141e-14 47.9472004,0.702128006 47.9472004,1.56520001 L47.9472004,24.1959202 C47.9472004,25.0589922 47.2450724,25.7611202 46.3821124,25.7611202 L43.8701764,25.7611202 Z" id="Fill-106"></path>
                <path d="M9.69886408,21.4995202 C7.85803207,21.4995202 6.36036805,22.9972962 6.36036805,24.8380162 C6.36036805,26.6788482 7.85803207,28.1762882 9.69886408,28.1762882 C11.5395841,28.1762882 13.0373601,26.6788482 13.0373601,24.8380162 C13.0373601,22.9972962 11.5395841,21.4995202 9.69886408,21.4995202 Z M9.69886408,29.9402883 C6.88531206,29.9402883 4.59636804,27.6513442 4.59636804,24.8380162 C4.59636804,22.0244642 6.88531206,19.7355202 9.69886408,19.7355202 C12.5124161,19.7355202 14.8013601,22.0244642 14.8013601,24.8380162 C14.8013601,27.6513442 12.5124161,29.9402883 9.69886408,29.9402883 L9.69886408,29.9402883 Z" id="Fill-107"></path>
                <path d="M37.7247363,21.4995202 C35.8840163,21.4995202 34.3862403,22.9972962 34.3862403,24.8380162 C34.3862403,26.6788482 35.8840163,28.1762882 37.7247363,28.1762882 C39.5655683,28.1762882 41.0630083,26.6788482 41.0630083,24.8380162 C41.0630083,22.9972962 39.5655683,21.4995202 37.7247363,21.4995202 Z M37.7247363,29.9402883 C34.9111843,29.9402883 32.6222403,27.6513442 32.6222403,24.8380162 C32.6222403,22.0244642 34.9111843,19.7355202 37.7247363,19.7355202 C40.5380643,19.7355202 42.8270084,22.0244642 42.8270084,24.8380162 C42.8270084,27.6513442 40.5380643,29.9402883 37.7247363,29.9402883 L37.7247363,29.9402883 Z" id="Fill-108"></path>
                <path d="M54.1503205,4.78161604 L49.6671844,4.78161604 C49.1802084,4.78161604 48.7851844,4.38681604 48.7851844,3.89961603 C48.7851844,3.41252803 49.1802084,3.01761603 49.6671844,3.01761603 L54.1503205,3.01761603 C54.6372965,3.01761603 55.0323205,3.41252803 55.0323205,3.89961603 C55.0323205,4.38681604 54.6372965,4.78161604 54.1503205,4.78161604" id="Fill-109"></path>
                <path d="M58.0286565,9.22902408 L49.6671844,9.22902408 C49.1802084,9.22902408 48.7851844,8.83422408 48.7851844,8.34702407 C48.7851844,7.85993607 49.1802084,7.46502406 49.6671844,7.46502406 L58.0286565,7.46502406 C58.5157445,7.46502406 58.9106565,7.85993607 58.9106565,8.34702407 C58.9106565,8.83422408 58.5157445,9.22902408 58.0286565,9.22902408" id="Fill-110"></path>
                <path d="M52.0301604,13.5780961 L49.6671844,13.5780961 C49.1802084,13.5780961 48.7851844,13.1832961 48.7851844,12.6960961 C48.7851844,12.2090081 49.1802084,11.8140961 49.6671844,11.8140961 L52.0301604,11.8140961 C52.5171364,11.8140961 52.9121605,12.2090081 52.9121605,12.6960961 C52.9121605,13.1832961 52.5171364,13.5780961 52.0301604,13.5780961" id="Fill-111"></path>
            </g>
        </g>
    </g>
</svg>