<svg xmlns="http://www.w3.org/2000/svg" width="19" height="16" viewBox="0 0 19 16">
    <path fill="#C3C2C0" fill-rule="nonzero" d="M17.538 0C18.346 0 19 .646 19 1.444c0 .798-.654 1.444-1.462 1.444h-.73V16H2.192V2.888h-.73A1.452 1.452 0 0 1 0 1.444C0 .646.654 0 1.462 0zM15 2H4v12h11V2zm-4.928 1v1.157c.603.087 1.069.346 1.398.775.329.43.494.988.494 1.675h-1.258c0-.442-.098-.79-.294-1.044a.953.953 0 0 0-.798-.381c-.332 0-.592.091-.78.273-.186.183-.28.444-.28.784 0 .305.093.55.278.733.185.184.5.359.943.523.444.165.792.317 1.045.458.253.14.466.3.64.48.173.181.306.389.4.624.093.235.14.51.14.825 0 .593-.18 1.073-.538 1.44-.359.369-.858.586-1.5.653V13h-.826v-1.02c-.686-.077-1.213-.326-1.582-.747-.37-.42-.554-.977-.554-1.671h1.263c0 .441.11.783.33 1.025.22.242.531.363.933.363.395 0 .696-.097.902-.29.206-.192.309-.448.309-.767 0-.298-.094-.544-.28-.739-.188-.194-.5-.37-.936-.526a7.313 7.313 0 0 1-1.019-.433c-.807-.439-1.21-1.087-1.21-1.946 0-.582.174-1.06.524-1.435.35-.375.825-.598 1.424-.668V3h.832z"/>
</svg>
