<svg width="16" height="16" viewBox="0 0 16 16" fill="none" xmlns="http://www.w3.org/2000/svg">
<path d="M11.5582 1.20654L14.6296 3.76988L13.7762 4.79321L10.7029 2.23121L11.5582 1.20654ZM4.44225 1.20654L5.29692 2.23054L2.22492 4.79321L1.37158 3.76921L4.44225 1.20654ZM8.00025 2.66654C4.68692 2.66654 2.00025 5.35321 2.00025 8.66654C2.00025 11.9799 4.68692 14.6665 8.00025 14.6665C11.3136 14.6665 14.0002 11.9799 14.0002 8.66654C14.0002 5.35321 11.3136 2.66654 8.00025 2.66654ZM8.00025 13.3332C5.42692 13.3332 3.33358 11.2399 3.33358 8.66654C3.33358 6.09321 5.42692 3.99988 8.00025 3.99988C10.5736 3.99988 12.6669 6.09321 12.6669 8.66654C12.6669 11.2399 10.5736 13.3332 8.00025 13.3332Z" fill="#919EAB"/>
<path d="M8.66683 11.3335V7.9935H10.6668L8.00016 5.3335L5.3335 7.9935H7.3335V11.3335H8.66683Z" fill="#919EAB"/>
</svg>