<svg width="20" height="20" viewBox="0 0 20 20" fill="none" xmlns="http://www.w3.org/2000/svg">
<path d="M17.5 9C18.88 9 20 7.87 20 6.5L18.61 1.08C18.61 1.08 18.32 0 17.3 0H2.7C1.68 0 1.39 1.08 1.39 1.08L0 6.5C0 7.87 1.12 9 2.5 9C3.88 9 5 7.87 5 6.5C5 7.87 6.12 9 7.5 9C8.88 9 10 7.87 10 6.5C10 7.87 11.12 9 12.5 9C13.88 9 15 7.87 15 6.5C15 7.87 16.12 9 17.5 9Z" fill="white"/>
<path d="M19 18V10.2C18.54 10.39 18.03 10.5 17.5 10.5C16.56 10.5 15.68 10.17 15 9.62C14.32 10.17 13.45 10.5 12.5 10.5C11.56 10.5 10.69 10.17 10 9.62C9.32 10.17 8.45 10.5 7.5 10.5C6.56 10.5 5.69 10.17 5 9.62C4.32 10.17 3.45 10.5 2.5 10.5C1.97 10.5 1.46 10.39 1 10.2V18C1 19.1 1.9 20 3 20H17C18.1 20 19 19.1 19 18Z" fill="white"/>
</svg>
