<svg xmlns="http://www.w3.org/2000/svg" width="15" height="16" viewBox="0 0 15 16">
    <path fill="#C3C2C0" fill-rule="nonzero" d="M7.453 0c-1.375.025-2.38.437-2.99 1.244-.723.957-.855 2.414-.398 4.32-.168.207-.295.521-.245.94.098.824.426 1.166.69 1.302.126.652.484 1.381.829 1.726v.176c.003.382.001.712-.035 1.139-.23.528-.99.838-1.87 1.185-1.46.577-3.275 1.29-3.41 3.569L0 16h15l-.023-.4c-.136-2.278-1.944-2.991-3.4-3.568-.875-.347-1.641-.657-1.87-1.185-.036-.426-.025-.757-.022-1.139v-.176c.334-.343.679-1.074.806-1.726.27-.135.59-.475.689-1.303.05-.41-.07-.72-.234-.927.218-.744.662-2.68-.105-3.92-.321-.52-.807-.847-1.448-.975C9.039.233 8.362 0 7.453 0z"/>
</svg>
