<svg xmlns="http://www.w3.org/2000/svg" width="24" height="24" viewBox="0 0 24 24">
    <g fill="none" fill-rule="nonzero">
        <circle cx="12" cy="12" r="12" fill="#F3EBCA"/>
        <path fill="#FF9800" d="M14.4 16.2s0 2.4-2.4 2.4-2.4-2.4-2.4-2.4"/>
        <path fill="#005E39" d="M12 24c2.69 0 5.163-.895 7.163-2.39-.371-4.539-4.913-5.41-4.913-5.41l-2.25.462-2.25-.462s-4.543.854-4.914 5.41A11.93 11.93 0 0 0 12 24z"/>
        <path fill="#00844B" d="M12 19.8a3.599 3.599 0 0 0 3.569-3.15 7.075 7.075 0 0 0-1.173-.416A2.398 2.398 0 0 1 12 18.6a2.398 2.398 0 0 1-2.396-2.367 7.116 7.116 0 0 0-1.173.413A3.598 3.598 0 0 0 12 19.8z"/>
        <path fill="#DFA65D" d="M16.8 11.1a.9.9 0 1 1-1.8 0 .9.9 0 0 1 1.8 0m-7.8 0a.9.9 0 1 0-1.8 0 .9.9 0 0 0 1.8 0m5.4 5.1v-2.4H9.6v2.4s0 2.4 2.4 2.4 2.4-2.4 2.4-2.4z"/>
        <path fill="#FFCC80" d="M16.2 8.808c0-3.527-8.4-2.296-8.4 0v2.635c0 2.294 1.88 4.158 4.2 4.158 2.32 0 4.2-1.863 4.2-4.158V8.808z"/>
        <path fill="#633D2A" d="M12 4.2c-2.916 0-4.8 2.588-4.8 4.903V10.2l1.2 1.2V9l5.52-1.8L15.6 9v2.4l1.2-1.2v-.485c0-1.931-.499-4.082-2.88-4.556l-.48-.959H12z"/>
        <path fill="#784719" d="M13.2 10.8a.6.6 0 1 1 1.201.001.6.6 0 0 1-1.201-.001m-3.6 0a.6.6 0 1 0 1.201-.001.6.6 0 0 0-1.201.001"/>
    </g>
</svg>
