<svg xmlns="http://www.w3.org/2000/svg" width="17" height="18" viewBox="0 0 17 18">
    <path fill="#C3C2C0" fill-rule="nonzero" d="M8.053 0C4.1 0 .895 3.224.895 7.2V8.912C.38 9.404 0 10.038 0 10.8c0 1.118.767 1.947 1.739 2.352C2.903 15.951 5.234 18 8.053 18h2.684v-1.8H8.053c-2.021 0-3.856-1.53-4.778-3.948l-.19-.496-.525-.074a.879.879 0 0 1-.77-.882c0-.346.173-.618.445-.775l.45-.259V8.1c0-.497.4-.9.894-.9h8.947c.494 0 .895.403.895.9v4.5H9.763a1.338 1.338 0 0 0-2.212-.505 1.354 1.354 0 0 0-.393.955A1.347 1.347 0 0 0 8.5 14.4h6.711A1.8 1.8 0 0 0 17 12.6v-1.8A1.8 1.8 0 0 0 15.21 9V7.2c0-3.976-3.204-7.2-7.157-7.2z"/>
</svg>
