<?xml version="1.0" encoding="UTF-8"?>
<svg width="12px" height="14px" viewBox="0 0 12 14" version="1.1" xmlns="http://www.w3.org/2000/svg" xmlns:xlink="http://www.w3.org/1999/xlink">
    <title> Preview Invoice icon</title>
    <g id="Invoicing" stroke="none" stroke-width="1" fill="none" fill-rule="evenodd">
        <g id="Order-Process---Invoicing-screen" transform="translate(-1290.000000, -589.000000)" fill="#919EAB" fill-rule="nonzero">
            <g id="-Preview-Invoice-icon" transform="translate(1290.666667, 589.333333)">
                <path d="M6.66666667,-1.50102153e-13 L1.33333333,-1.50102153e-13 C0.6,-1.50102153e-13 0.00666666667,0.6 0.00666666667,1.33333333 L1.50102153e-13,12 C1.50102153e-13,12.7333333 0.593333333,13.3333333 1.32666667,13.3333333 L9.33333333,13.3333333 C10.0666667,13.3333333 10.6666667,12.7333333 10.6666667,12 L10.6666667,4 L6.66666667,-1.50102153e-13 Z M8.33333333,8.66666667 L8.33333333,9.66666667 L2.33333333,9.66666667 L2.33333333,8.66666667 L8.33333333,8.66666667 Z M8.33333333,6.66666667 L8.33333333,7.66666667 L2.33333333,7.66666667 L2.33333333,6.66666667 L8.33333333,6.66666667 Z M6,1 L9.66666667,4.66666667 L6,4.66666667 L6,1 Z"></path>
            </g>
        </g>
    </g>
</svg>
