<svg width="16" height="16" viewBox="0 0 16 16" fill="none" xmlns="http://www.w3.org/2000/svg">
<path fill-rule="evenodd" clip-rule="evenodd" d="M4.66683 12.6669H11.3335V11.3335H12.6668V12.6669C12.6668 13.0205 12.5264 13.3596 12.2763 13.6097C12.0263 13.8597 11.6871 14.0002 11.3335 14.0002H4.66683C4.31321 14.0002 3.97407 13.8597 3.72402 13.6097C3.47397 13.3596 3.3335 13.0205 3.3335 12.6669V2.66683C3.3335 2.31321 3.47397 1.97407 3.72402 1.72402C3.97407 1.47397 4.31321 1.3335 4.66683 1.3335H11.3335C11.6871 1.3335 12.0263 1.47397 12.2763 1.72402C12.5264 1.97407 12.6668 2.31321 12.6668 2.66683V4.00017H11.3335V2.66683H4.66683V12.6669Z" fill="#FA9A88"/>
<path d="M9.3335 8.25017L12.6735 8.25017L12.6735 10.0002L15.3335 7.66683L12.6735 5.3335L12.6735 7.0835L9.3335 7.0835L9.3335 8.25017Z" fill="#FA9A88"/>
</svg>
