<svg viewBox="0 0 40 40" fill="none" xmlns="http://www.w3.org/2000/svg">
<g filter="url(#filter0_d)">
<rect x="8" y="6" width="24" height="24" rx="2" fill="white"/>
</g>
<path fill-rule="evenodd" clip-rule="evenodd" d="M25.9998 18C25.9998 18.27 25.9798 18.53 25.9498 18.78L27.6198 20.1C27.7798 20.22 27.8198 20.43 27.7198 20.61L26.1198 23.38C26.0198 23.56 25.8098 23.63 25.6298 23.56L23.6398 22.76C23.2298 23.07 22.7798 23.34 22.2898 23.54L21.9898 25.66C21.9698 25.86 21.7998 26 21.5998 26H18.3998C18.1998 26 18.0398 25.86 17.9998 25.66L17.6998 23.54C17.2098 23.34 16.7698 23.08 16.3498 22.76L14.3598 23.56C14.1798 23.62 13.9698 23.56 13.8698 23.38L12.2698 20.61C12.1798 20.44 12.2198 20.22 12.3698 20.1L14.0598 18.78C14.0198 18.53 13.9998 18.26 13.9998 18C13.9998 17.74 14.0298 17.47 14.0698 17.22L12.3798 15.9C12.2198 15.78 12.1798 15.57 12.2798 15.39L13.8798 12.62C13.9798 12.44 14.1898 12.37 14.3698 12.44L16.3598 13.24C16.7698 12.93 17.2198 12.66 17.7098 12.46L18.0098 10.34C18.0398 10.14 18.1998 10 18.3998 10H21.5998C21.7998 10 21.9698 10.14 21.9998 10.34L22.2998 12.46C22.7898 12.66 23.2298 12.92 23.6498 13.24L25.6398 12.44C25.8198 12.38 26.0298 12.44 26.1298 12.62L27.7298 15.39C27.8198 15.56 27.7798 15.78 27.6298 15.9L25.9398 17.22C25.9798 17.47 25.9998 17.73 25.9998 18ZM16.9998 18C16.9998 19.65 18.3498 21 19.9998 21C21.6498 21 22.9998 19.65 22.9998 18C22.9998 16.35 21.6498 15 19.9998 15C18.3498 15 16.9998 16.35 16.9998 18Z" fill="#919EAB"/>
<defs>
<filter id="filter0_d" x="0" y="0" width="40" height="40" filterUnits="userSpaceOnUse" color-interpolation-filters="sRGB">
<feFlood flood-opacity="0" result="BackgroundImageFix"/>
<feColorMatrix in="SourceAlpha" type="matrix" values="0 0 0 0 0 0 0 0 0 0 0 0 0 0 0 0 0 0 127 0"/>
<feOffset dy="2"/>
<feGaussianBlur stdDeviation="4"/>
<feColorMatrix type="matrix" values="0 0 0 0 0.87451 0 0 0 0 0.890196 0 0 0 0 0.909804 0 0 0 1 0"/>
<feBlend mode="normal" in2="BackgroundImageFix" result="effect1_dropShadow"/>
<feBlend mode="normal" in="SourceGraphic" in2="effect1_dropShadow" result="shape"/>
</filter>
</defs>
</svg>
