<svg width="26" height="37" viewBox="0 0 26 37" fill="none" xmlns="http://www.w3.org/2000/svg">
<mask id="path-1-outside-1" maskUnits="userSpaceOnUse" x="0" y="0.600098" width="26" height="36" fill="black">
<rect fill="white" y="0.600098" width="26" height="36"/>
<path d="M12.6667 1.6001C6.21666 1.6001 1 6.79689 1 13.2223C1 21.939 12.6667 34.8065 12.6667 34.8065C12.6667 34.8065 24.3333 21.939 24.3333 13.2223C24.3333 6.79689 19.1166 1.6001 12.6667 1.6001Z"/>
</mask>
<path d="M12.6667 1.6001C6.21666 1.6001 1 6.79689 1 13.2223C1 21.939 12.6667 34.8065 12.6667 34.8065C12.6667 34.8065 24.3333 21.939 24.3333 13.2223C24.3333 6.79689 19.1166 1.6001 12.6667 1.6001Z" fill="white"/>
<path d="M12.6667 34.8065L11.9258 35.4782L12.6667 36.2952L13.4075 35.4782L12.6667 34.8065ZM12.6667 0.600098C5.66798 0.600098 0 6.24101 0 13.2223H2C2 7.35277 6.76535 2.6001 12.6667 2.6001V0.600098ZM0 13.2223C0 15.6046 0.79136 18.1929 1.9109 20.6823C3.03636 23.185 4.52808 25.6627 6.00536 27.8439C7.48457 30.028 8.96179 31.933 10.0685 33.2913C10.6222 33.9711 11.0843 34.5153 11.409 34.8907C11.5713 35.0784 11.6994 35.224 11.7874 35.3233C11.8314 35.3729 11.8654 35.411 11.8887 35.437C11.9004 35.45 11.9094 35.4599 11.9156 35.4668C11.9187 35.4703 11.9211 35.4729 11.9228 35.4748C11.9237 35.4758 11.9243 35.4765 11.9249 35.4771C11.9251 35.4774 11.9253 35.4776 11.9255 35.4778C11.9257 35.478 11.9258 35.4782 12.6667 34.8065C13.4075 34.1348 13.4076 34.1348 13.4076 34.1349C13.4075 34.1348 13.4075 34.1348 13.4074 34.1347C13.4072 34.1344 13.4068 34.134 13.4062 34.1334C13.4051 34.1322 13.4033 34.1302 13.4008 34.1274C13.3958 34.1218 13.3881 34.1132 13.3776 34.1016C13.3568 34.0784 13.3253 34.0431 13.2839 33.9964C13.201 33.9029 13.0784 33.7635 12.9217 33.5824C12.6083 33.22 12.159 32.6909 11.619 32.0281C10.5382 30.7014 9.09875 28.8448 7.6613 26.7224C6.22192 24.5971 4.79697 22.2236 3.73493 19.862C2.66697 17.4873 2 15.1984 2 13.2223H0ZM12.6667 34.8065C13.4075 35.4782 13.4076 35.478 13.4078 35.4778C13.408 35.4776 13.4082 35.4774 13.4085 35.4771C13.409 35.4765 13.4096 35.4758 13.4105 35.4748C13.4122 35.4729 13.4146 35.4703 13.4177 35.4668C13.4239 35.4599 13.4329 35.45 13.4446 35.437C13.4679 35.411 13.5019 35.3729 13.5459 35.3233C13.6339 35.224 13.762 35.0784 13.9243 34.8907C14.249 34.5153 14.7111 33.9711 15.2649 33.2913C16.3715 31.933 17.8487 30.028 19.328 27.8439C20.8052 25.6627 22.297 23.185 23.4224 20.6823C24.542 18.1929 25.3333 15.6046 25.3333 13.2223H23.3333C23.3333 15.1984 22.6663 17.4873 21.5984 19.862C20.5363 22.2236 19.1114 24.5971 17.672 26.7224C16.2346 28.8448 14.7951 30.7014 13.7143 32.0281C13.1743 32.6909 12.725 33.22 12.4116 33.5824C12.2549 33.7635 12.1323 33.9029 12.0494 33.9964C12.008 34.0431 11.9765 34.0784 11.9557 34.1016C11.9453 34.1132 11.9375 34.1218 11.9325 34.1274C11.93 34.1302 11.9282 34.1322 11.9271 34.1334C11.9265 34.134 11.9261 34.1344 11.9259 34.1347C11.9258 34.1348 11.9258 34.1348 11.9257 34.1349C11.9258 34.1348 11.9258 34.1348 12.6667 34.8065ZM25.3333 13.2223C25.3333 6.24101 19.6653 0.600098 12.6667 0.600098V2.6001C18.568 2.6001 23.3333 7.35277 23.3333 13.2223H25.3333Z" fill="#212B36" mask="url(#path-1-outside-1)"/>
<path d="M17.1665 13.2222C17.1665 15.6951 15.1536 17.7031 12.6665 17.7031C10.1794 17.7031 8.1665 15.6951 8.1665 13.2222C8.1665 10.7492 10.1794 8.74121 12.6665 8.74121C15.1536 8.74121 17.1665 10.7492 17.1665 13.2222Z" fill="#F1F1F1" stroke="#212B36"/>
</svg>
