<svg width="26" height="36" viewBox="0 0 26 36" fill="none" xmlns="http://www.w3.org/2000/svg">
<mask id="path-1-outside-1" maskUnits="userSpaceOnUse" x="0" y="0" width="26" height="36" fill="black">
<rect fill="white" width="26" height="36"/>
<path d="M12.6667 1C6.21667 1 1 6.21667 1 12.6667C1 21.4167 12.6667 34.3333 12.6667 34.3333C12.6667 34.3333 24.3333 21.4167 24.3333 12.6667C24.3333 6.21667 19.1167 1 12.6667 1Z"/>
</mask>
<path d="M12.6667 1C6.21667 1 1 6.21667 1 12.6667C1 21.4167 12.6667 34.3333 12.6667 34.3333C12.6667 34.3333 24.3333 21.4167 24.3333 12.6667C24.3333 6.21667 19.1167 1 12.6667 1Z" fill="#2B3949"/>
<path d="M12.6667 34.3333L11.9246 35.0036L12.6667 35.8252L13.4088 35.0036L12.6667 34.3333ZM12.6667 0C5.66438 0 0 5.66438 0 12.6667H2C2 6.76895 6.76895 2 12.6667 2V0ZM0 12.6667C0 15.0565 0.790895 17.6536 1.91031 20.1523C3.0356 22.6641 4.52715 25.1511 6.00437 27.3406C7.4835 29.5328 8.96066 31.445 10.0673 32.8086C10.6211 33.4909 11.0831 34.0371 11.4078 34.4139C11.5701 34.6024 11.6981 34.7485 11.7862 34.8482C11.8302 34.898 11.8642 34.9362 11.8875 34.9623C11.8991 34.9753 11.9081 34.9853 11.9143 34.9922C11.9174 34.9957 11.9198 34.9984 11.9216 35.0003C11.9224 35.0012 11.9231 35.002 11.9236 35.0025C11.9238 35.0028 11.9241 35.0031 11.9242 35.0032C11.9244 35.0034 11.9246 35.0036 12.6667 34.3333C13.4088 33.663 13.4088 33.6631 13.4089 33.6631C13.4088 33.6631 13.4088 33.6631 13.4087 33.6629C13.4085 33.6627 13.4081 33.6623 13.4075 33.6617C13.4064 33.6604 13.4046 33.6584 13.4021 33.6556C13.3971 33.6501 13.3893 33.6414 13.3789 33.6297C13.3581 33.6064 13.3266 33.571 13.2851 33.5241C13.2023 33.4303 13.0796 33.2904 12.923 33.1085C12.6096 32.7448 12.1602 32.2136 11.6202 31.5482C10.5393 30.2164 9.09983 28.3526 7.6623 26.222C6.22285 24.0885 4.79773 21.7056 3.73552 19.3346C2.66744 16.9505 2 14.6518 2 12.6667H0ZM12.6667 34.3333C13.4088 35.0036 13.4089 35.0034 13.4091 35.0032C13.4093 35.0031 13.4095 35.0028 13.4097 35.0025C13.4102 35.002 13.4109 35.0012 13.4118 35.0003C13.4135 34.9984 13.4159 34.9957 13.419 34.9922C13.4252 34.9853 13.4342 34.9753 13.4458 34.9623C13.4692 34.9362 13.5032 34.898 13.5472 34.8482C13.6352 34.7485 13.7632 34.6024 13.9256 34.4139C14.2502 34.0371 14.7123 33.4909 15.266 32.8086C16.3727 31.445 17.8498 29.5328 19.329 27.3406C20.8062 25.1511 22.2977 22.6641 23.423 20.1523C24.5424 17.6536 25.3333 15.0565 25.3333 12.6667H23.3333C23.3333 14.6518 22.6659 16.9505 21.5978 19.3346C20.5356 21.7056 19.1105 24.0885 17.671 26.222C16.2335 28.3526 14.794 30.2164 13.7131 31.5482C13.1731 32.2136 12.7238 32.7448 12.4104 33.1085C12.2537 33.2904 12.1311 33.4303 12.0482 33.5241C12.0068 33.571 11.9753 33.6064 11.9544 33.6297C11.944 33.6414 11.9362 33.6501 11.9312 33.6556C11.9287 33.6584 11.9269 33.6604 11.9258 33.6617C11.9252 33.6623 11.9249 33.6627 11.9247 33.6629C11.9246 33.6631 11.9245 33.6631 11.9245 33.6631C11.9245 33.6631 11.9246 33.663 12.6667 34.3333ZM25.3333 12.6667C25.3333 5.66438 19.669 0 12.6667 0V2C18.5644 2 23.3333 6.76895 23.3333 12.6667H25.3333Z" fill="#212B36" mask="url(#path-1-outside-1)"/>
<circle cx="12.6665" cy="12.6665" r="4.5" fill="#F1F1F1" stroke="#212B36"/>
</svg>
