<svg width="26" height="37" viewBox="0 0 26 37" fill="none" xmlns="http://www.w3.org/2000/svg">
<mask id="path-1-outside-1" maskUnits="userSpaceOnUse" x="0" y="0.664551" width="26" height="36" fill="black">
<rect fill="white" y="0.664551" width="26" height="36"/>
<path d="M12.6667 1.66455C6.21666 1.66455 1 6.86136 1 13.2868C1 22.0035 12.6667 34.871 12.6667 34.871C12.6667 34.871 24.3333 22.0035 24.3333 13.2868C24.3333 6.86136 19.1166 1.66455 12.6667 1.66455Z"/>
</mask>
<path d="M12.6667 1.66455C6.21666 1.66455 1 6.86136 1 13.2868C1 22.0035 12.6667 34.871 12.6667 34.871C12.6667 34.871 24.3333 22.0035 24.3333 13.2868C24.3333 6.86136 19.1166 1.66455 12.6667 1.66455Z" fill="white"/>
<path d="M12.6667 34.871L11.9258 35.5427L12.6667 36.3597L13.4075 35.5427L12.6667 34.871ZM12.6667 0.664551C5.66798 0.664551 0 6.30548 0 13.2868H2C2 7.41723 6.76535 2.66455 12.6667 2.66455V0.664551ZM0 13.2868C0 15.6691 0.79136 18.2574 1.9109 20.7468C3.03636 23.2495 4.52807 25.7272 6.00535 27.9084C7.48457 30.0925 8.96179 31.9975 10.0685 33.3558C10.6222 34.0356 11.0843 34.5798 11.409 34.9552C11.5713 35.1429 11.6994 35.2885 11.7874 35.3878C11.8314 35.4374 11.8654 35.4755 11.8887 35.5015C11.9004 35.5145 11.9094 35.5244 11.9156 35.5313C11.9187 35.5348 11.9211 35.5374 11.9228 35.5393C11.9237 35.5403 11.9243 35.541 11.9249 35.5416C11.9251 35.5419 11.9253 35.5421 11.9255 35.5423C11.9257 35.5425 11.9258 35.5427 12.6667 34.871C13.4075 34.1993 13.4076 34.1994 13.4076 34.1994C13.4075 34.1993 13.4075 34.1993 13.4074 34.1992C13.4072 34.199 13.4068 34.1985 13.4062 34.1979C13.4051 34.1967 13.4033 34.1947 13.4008 34.1919C13.3958 34.1863 13.3881 34.1777 13.3776 34.1661C13.3568 34.1429 13.3253 34.1076 13.2839 34.0609C13.201 33.9674 13.0784 33.8281 12.9217 33.6469C12.6083 33.2845 12.159 32.7554 11.619 32.0926C10.5382 30.7659 9.09875 28.9093 7.6613 26.7869C6.22192 24.6616 4.79697 22.2881 3.73493 19.9265C2.66697 17.5518 2 15.2629 2 13.2868H0ZM12.6667 34.871C13.4075 35.5427 13.4076 35.5425 13.4078 35.5423C13.408 35.5421 13.4082 35.5419 13.4085 35.5416C13.409 35.541 13.4096 35.5403 13.4105 35.5393C13.4122 35.5374 13.4146 35.5348 13.4177 35.5313C13.4239 35.5244 13.4329 35.5145 13.4446 35.5015C13.4679 35.4755 13.5019 35.4374 13.5459 35.3878C13.6339 35.2885 13.762 35.1429 13.9243 34.9552C14.249 34.5798 14.7111 34.0356 15.2649 33.3558C16.3715 31.9975 17.8487 30.0925 19.328 27.9084C20.8052 25.7272 22.297 23.2495 23.4224 20.7468C24.542 18.2574 25.3333 15.6691 25.3333 13.2868H23.3333C23.3333 15.2629 22.6663 17.5518 21.5984 19.9265C20.5363 22.2881 19.1114 24.6616 17.672 26.7869C16.2346 28.9093 14.7951 30.7659 13.7143 32.0926C13.1743 32.7554 12.725 33.2845 12.4116 33.6469C12.2549 33.8281 12.1323 33.9674 12.0494 34.0609C12.008 34.1076 11.9765 34.1429 11.9557 34.1661C11.9453 34.1777 11.9375 34.1863 11.9325 34.1919C11.93 34.1947 11.9282 34.1967 11.9271 34.1979C11.9265 34.1985 11.9261 34.199 11.9259 34.1992C11.9258 34.1993 11.9258 34.1993 11.9257 34.1994C11.9258 34.1994 11.9258 34.1993 12.6667 34.871ZM25.3333 13.2868C25.3333 6.30548 19.6653 0.664551 12.6667 0.664551V2.66455C18.568 2.66455 23.3333 7.41723 23.3333 13.2868H25.3333Z" fill="#212B36" mask="url(#path-1-outside-1)"/>
<path fill-rule="evenodd" clip-rule="evenodd" d="M13 1.66919C12.8893 1.6661 12.7781 1.66455 12.6667 1.66455C6.21666 1.66455 1 6.86136 1 13.2868C1 22.0035 12.6667 34.871 12.6667 34.871C12.6667 34.871 12.7858 34.7396 13 34.4943V1.66919Z" fill="#2B3949"/>
<path d="M17.1665 13.2866C17.1665 15.7596 15.1536 17.7676 12.6665 17.7676C10.1794 17.7676 8.1665 15.7596 8.1665 13.2866C8.1665 10.8136 10.1794 8.80566 12.6665 8.80566C15.1536 8.80566 17.1665 10.8136 17.1665 13.2866Z" fill="#F1F1F1" stroke="#212B36"/>
</svg>
