<svg xmlns="http://www.w3.org/2000/svg" width="16" height="20" viewBox="0 0 16 20">
    <path fill="#FFF" d="M8 0l5.66 5.66c3.12 3.12 3.12 8.19 0 11.31-1.56 1.56-3.61 2.34-5.66 2.34-2.05 0-4.1-.78-5.66-2.34-3.12-3.12-3.12-8.19 0-11.31L8 0zm.778 7h-1.6c-.1 0-.18.07-.195.17l-.15 1.06c-.245.1-.47.235-.675.39l-.995-.4c-.09-.035-.195 0-.245.09l-.8 1.385c-.05.09-.03.195.05.255l.845.66c-.02.125-.035.26-.035.39s.01.265.03.39l-.845.66c-.075.06-.095.17-.05.255l.8 1.385c.05.09.155.12.245.09l.995-.4c.21.16.43.29.675.39l.15 1.06c.02.1.1.17.2.17h1.6c.1 0 .185-.07.195-.17l.15-1.06c.245-.1.47-.235.675-.39l.995.4c.09.035.195 0 .245-.09l.8-1.385c.05-.09.03-.195-.05-.255l-.835-.66c.015-.125.025-.255.025-.39s-.01-.265-.03-.39l.845-.66c.075-.06.095-.17.05-.255l-.8-1.385c-.05-.09-.155-.12-.245-.09l-.995.4c-.21-.16-.43-.29-.675-.39l-.15-1.06c-.015-.1-.1-.17-.2-.17zm-.8 2.5c.825 0 1.5.675 1.5 1.5s-.675 1.5-1.5 1.5-1.5-.675-1.5-1.5.675-1.5 1.5-1.5z"/>
</svg>
