<svg width="142" height="142" viewBox="0 0 142 142" fill="none"
  xmlns="http://www.w3.org/2000/svg">
  <path opacity="0.2" fill-rule="evenodd" clip-rule="evenodd" d="M71 141C109.66 141 141 109.66 141 71C141 32.3401 109.66 1 71 1C32.3401 1 1 32.3401 1 71C1 109.66 32.3401 141 71 141Z" fill="#EDEDED" stroke="#979797"/>
  <path fill-rule="evenodd" clip-rule="evenodd" d="M46.8887 60.7334C46.8887 47.5065 57.8612 36.7778 71.3887 36.7778C84.9162 36.7778 95.8887 47.5065 95.8887 60.7334C95.8887 78.7001 71.3887 105.222 71.3887 105.222C71.3887 105.222 46.8887 78.7001 46.8887 60.7334ZM62.7809 61.1281C62.7809 65.8508 66.6374 69.6837 71.389 69.6837C76.1407 69.6837 79.9971 65.8508 79.9971 61.1281C79.9971 56.4055 76.1407 52.5726 71.389 52.5726C66.6374 52.5726 62.7809 56.4055 62.7809 61.1281Z" fill="#919EAB"/>
  <path fill-rule="evenodd" clip-rule="evenodd" d="M72.1664 71.7777C78.395 71.7777 83.4442 66.7285 83.4442 60.4999C83.4442 54.2714 78.395 49.2222 72.1664 49.2222C65.9379 49.2222 60.8887 54.2714 60.8887 60.4999C60.8887 66.7285 65.9379 71.7777 72.1664 71.7777Z" fill="white"/>
  <g opacity="0.5">
    <path fill-rule="evenodd" clip-rule="evenodd" d="M104.444 81.2668C104.444 76.457 108.45 72.5557 113.389 72.5557C118.327 72.5557 122.333 76.457 122.333 81.2668C122.333 87.8001 113.389 97.4446 113.389 97.4446C113.389 97.4446 104.444 87.8001 104.444 81.2668ZM110.246 81.4104C110.246 83.1277 111.654 84.5215 113.389 84.5215C115.123 84.5215 116.531 83.1277 116.531 81.4104C116.531 79.693 115.123 78.2993 113.389 78.2993C111.654 78.2993 110.246 79.693 110.246 81.4104Z" fill="#919EAB"/>
    <path fill-rule="evenodd" clip-rule="evenodd" d="M113.778 85.7778C115.925 85.7778 117.666 84.0367 117.666 81.8889C117.666 79.7411 115.925 78 113.778 78C111.63 78 109.889 79.7411 109.889 81.8889C109.889 84.0367 111.63 85.7778 113.778 85.7778Z" fill="white"/>
  </g>
  <g opacity="0.5">
    <path fill-rule="evenodd" clip-rule="evenodd" d="M99.7773 43.8168C99.7773 40.3597 102.564 37.5557 106 37.5557C109.435 37.5557 112.222 40.3597 112.222 43.8168C112.222 48.5126 106 55.4446 106 55.4446C106 55.4446 99.7773 48.5126 99.7773 43.8168ZM103.814 43.9198C103.814 45.1541 104.793 46.1559 106 46.1559C107.207 46.1559 108.186 45.1541 108.186 43.9198C108.186 42.6855 107.207 41.6837 106 41.6837C104.793 41.6837 103.814 42.6855 103.814 43.9198Z" fill="#919EAB"/>
    <path fill-rule="evenodd" clip-rule="evenodd" d="M106.389 46.8888C107.893 46.8888 109.111 45.67 109.111 44.1666C109.111 42.6631 107.893 41.4443 106.389 41.4443C104.886 41.4443 103.667 42.6631 103.667 44.1666C103.667 45.67 104.886 46.8888 106.389 46.8888Z" fill="white"/>
  </g>
  <g opacity="0.3">
    <path fill-rule="evenodd" clip-rule="evenodd" d="M14.2227 63.9609C14.2227 58.3996 18.751 53.8887 24.3338 53.8887C29.9165 53.8887 34.4449 58.3996 34.4449 63.9609C34.4449 71.5151 24.3338 82.6665 24.3338 82.6665C24.3338 82.6665 14.2227 71.5151 14.2227 63.9609ZM20.7809 64.1272C20.7809 66.1129 22.3725 67.7244 24.3335 67.7244C26.2945 67.7244 27.886 66.1129 27.886 64.1272C27.886 62.1416 26.2945 60.53 24.3335 60.53C22.3725 60.53 20.7809 62.1416 20.7809 64.1272Z" fill="#919EAB"/>
    <path fill-rule="evenodd" clip-rule="evenodd" d="M24.7225 69.4446C27.5147 69.4446 29.7781 67.1812 29.7781 64.3891C29.7781 61.5969 27.5147 59.3335 24.7225 59.3335C21.9304 59.3335 19.667 61.5969 19.667 64.3891C19.667 67.1812 21.9304 69.4446 24.7225 69.4446Z" fill="white"/>
  </g>
</svg>
