<svg xmlns="http://www.w3.org/2000/svg" width="16" height="16" viewBox="0 0 16 16">
    <path fill="#919EAB" d="M.5 0C.207.055-.005.315 0 .615v4.923c0 .34.277.616.616.616h1.846v3.692H.616c-.37 0-.616.245-.616.616v4.923c0 .37.245.615.616.615h4.923c.37 0 .615-.245.615-.615v-1.847h3.692v1.847c0 .339.277.615.616.615h4.923c.339 0 .615-.276.615-.615v-4.923c0-.34-.276-.616-.615-.616h-1.847V6.154h1.847c.339 0 .615-.277.615-.616V.615C16 .276 15.724 0 15.385 0h-4.981c-.317.029-.56.296-.558.615v1.847H6.154V.615C6.154.276 5.878 0 5.539 0H.5zm.73 1.23h3.693v3.693H1.231V1.231zm9.847 0h3.692v3.693h-3.692V1.231zM6.154 3.693h3.692v1.846c0 .34.277.616.616.616h1.846v3.692H10.346c-.293.055-.505.315-.5.616v1.846H6.154v-1.846c0-.37-.245-.616-.615-.616H3.692V6.154H5.54c.339 0 .615-.277.615-.616V3.692zm4.923 7.385h3.692v3.692h-3.692v-3.692z"/>
</svg>
