<svg width="22" height="21" xmlns="http://www.w3.org/2000/svg">
    <g>
        <path stroke="null" id="svg_1" fill="#919EAB" d="m17.51291,4.77223l-12.74067,0l0,1.84172l12.74067,0l0,-1.84172zm-12.74067,11.05028l3.64021,0l0,-1.8417l-3.64021,0l0,1.8417zm0,-6.44599l10.46559,0c1.75636,0 3.18517,1.44575 3.18517,3.223c0,1.77726 -1.42881,3.22299 -3.18517,3.22299l-2.27513,0l0,1.84173l-2.73015,-2.76257l2.73015,-2.76257l0,1.84172l2.5026,0c0.75541,0 1.36508,-0.61698 1.36508,-1.38129c0,-0.7643 -0.60966,-1.38128 -1.36508,-1.38128l-10.69306,0l0,-1.84172z" />
    </g>
</svg>
