<svg width="18" height="24" viewBox="0 0 18 24" fill="none" xmlns="http://www.w3.org/2000/svg">
<path fill-rule="evenodd" clip-rule="evenodd" d="M1 8.7C1 4.4485 4.58286 1 9 1C13.4171 1 17 4.4485 17 8.7C17 14.475 9 23 9 23C9 23 1 14.475 1 8.7ZM9 12C11.2091 12 13 10.2411 13 8.07143C13 5.90174 11.2091 4.14286 9 4.14286C6.79086 4.14286 5 5.90174 5 8.07143C5 10.2411 6.79086 12 9 12Z" fill="white"/>
<path d="M9 23L8.6354 23.3421L9 23.7307L9.3646 23.3421L9 23ZM9 0.5C4.3249 0.5 0.5 4.15452 0.5 8.7H1.5C1.5 4.74248 4.84082 1.5 9 1.5V0.5ZM17.5 8.7C17.5 4.15452 13.6751 0.5 9 0.5V1.5C13.1592 1.5 16.5 4.74248 16.5 8.7H17.5ZM9 23C9.3646 23.3421 9.36469 23.3421 9.36481 23.3419C9.36489 23.3418 9.36503 23.3417 9.36519 23.3415C9.36551 23.3412 9.36595 23.3407 9.36651 23.3401C9.36763 23.3389 9.36924 23.3372 9.37131 23.335C9.37547 23.3305 9.38152 23.324 9.3894 23.3155C9.40517 23.2985 9.42827 23.2736 9.45823 23.2409C9.51814 23.1756 9.60547 23.0797 9.7163 22.9559C9.93793 22.7083 10.2537 22.349 10.6322 21.9001C11.3889 21.0027 12.3986 19.7446 13.4094 18.3026C14.4192 16.8621 15.4366 15.2288 16.2033 13.5817C16.9667 11.9415 17.5 10.2488 17.5 8.7H16.5C16.5 10.0387 16.0333 11.5772 15.2967 13.1597C14.5634 14.7353 13.5808 16.316 12.5906 17.7286C11.6014 19.1398 10.6111 20.3738 9.86775 21.2554C9.4963 21.6959 9.18707 22.0478 8.9712 22.2889C8.86328 22.4095 8.77873 22.5024 8.72145 22.5648C8.69282 22.596 8.671 22.6196 8.6565 22.6352C8.64924 22.643 8.64382 22.6488 8.64028 22.6526C8.63851 22.6545 8.63722 22.6559 8.6364 22.6568C8.63599 22.6572 8.6357 22.6575 8.63554 22.6577C8.63545 22.6578 8.63542 22.6578 8.63538 22.6579C8.63537 22.6579 8.6354 22.6579 9 23ZM0.5 8.7C0.5 10.2488 1.03328 11.9415 1.7967 13.5817C2.56335 15.2288 3.5808 16.8621 4.59057 18.3026C5.60138 19.7446 6.61113 21.0027 7.36775 21.9001C7.7463 22.349 8.06207 22.7083 8.2837 22.9559C8.39453 23.0797 8.48185 23.1756 8.54177 23.2409C8.57172 23.2736 8.59483 23.2985 8.6106 23.3155C8.61848 23.324 8.62453 23.3305 8.62869 23.335C8.63076 23.3372 8.63236 23.3389 8.63349 23.3401C8.63405 23.3407 8.63449 23.3412 8.63481 23.3415C8.63497 23.3417 8.63511 23.3418 8.63519 23.3419C8.63531 23.3421 8.6354 23.3421 9 23C9.3646 22.6579 9.36463 22.6579 9.36462 22.6579C9.36458 22.6578 9.36455 22.6578 9.36446 22.6577C9.3643 22.6575 9.36401 22.6572 9.3636 22.6568C9.36278 22.6559 9.36149 22.6545 9.35972 22.6526C9.35618 22.6488 9.35075 22.643 9.3435 22.6352C9.32899 22.6196 9.30718 22.596 9.27854 22.5648C9.22127 22.5024 9.13672 22.4095 9.0288 22.2889C8.81293 22.0478 8.5037 21.6959 8.13225 21.2554C7.38887 20.3738 6.39862 19.1398 5.40943 17.7286C4.41919 16.316 3.43665 14.7353 2.7033 13.1597C1.96672 11.5772 1.5 10.0387 1.5 8.7H0.5ZM12.5 8.07143C12.5 9.95652 10.9415 11.5 9 11.5V12.5C11.4767 12.5 13.5 10.5257 13.5 8.07143H12.5ZM9 4.64286C10.9415 4.64286 12.5 6.18634 12.5 8.07143H13.5C13.5 5.61714 11.4767 3.64286 9 3.64286V4.64286ZM5.5 8.07143C5.5 6.18634 7.05847 4.64286 9 4.64286V3.64286C6.52325 3.64286 4.5 5.61714 4.5 8.07143H5.5ZM9 11.5C7.05847 11.5 5.5 9.95652 5.5 8.07143H4.5C4.5 10.5257 6.52325 12.5 9 12.5V11.5Z" fill="#212B36"/>
</svg>
