<?xml version="1.0" encoding="UTF-8" standalone="no"?>
<svg width="16px" height="16px" viewBox="0 0 16 16" version="1.1" xmlns="http://www.w3.org/2000/svg" xmlns:xlink="http://www.w3.org/1999/xlink">
    <!-- Generator: Sketch 3.7.1 (28215) - http://www.bohemiancoding.com/sketch -->
    <title>noun_89769_cc</title>
    <desc>Created with Sketch.</desc>
    <defs>
        <rect id="path-1" x="0" y="0" width="332" height="952"></rect>
        <filter x="-50%" y="-50%" width="200%" height="200%" filterUnits="objectBoundingBox" id="filter-2">
            <feOffset dx="0" dy="10" in="SourceAlpha" result="shadowOffsetOuter1"></feOffset>
            <feGaussianBlur stdDeviation="20" in="shadowOffsetOuter1" result="shadowBlurOuter1"></feGaussianBlur>
            <feColorMatrix values="0 0 0 0 0   0 0 0 0 0   0 0 0 0 0  0 0 0 0.25 0" type="matrix" in="shadowBlurOuter1"></feColorMatrix>
        </filter>
        <rect id="path-3" x="0" y="0" width="439" height="992"></rect>
        <filter x="-50%" y="-50%" width="200%" height="200%" filterUnits="objectBoundingBox" id="filter-4">
            <feOffset dx="0" dy="10" in="SourceAlpha" result="shadowOffsetOuter1"></feOffset>
            <feGaussianBlur stdDeviation="20" in="shadowOffsetOuter1" result="shadowBlurOuter1"></feGaussianBlur>
            <feColorMatrix values="0 0 0 0 0   0 0 0 0 0   0 0 0 0 0  0 0 0 0.25 0" type="matrix" in="shadowBlurOuter1"></feColorMatrix>
        </filter>
        <rect id="path-5" x="350" y="51" width="32" height="33" rx="6"></rect>
        <mask id="mask-6" maskContentUnits="userSpaceOnUse" maskUnits="objectBoundingBox" x="0" y="0" width="32" height="33" fill="white">
            <use xlink:href="#path-5"></use>
        </mask>
    </defs>
    <g id="Page-1" stroke="none" stroke-width="1" fill="none" fill-rule="evenodd">
        <g id="02-Expanded" transform="translate(-1201.000000, -188.000000)">
            <g id="Nav-Bar" transform="translate(949.000000, 72.000000)">
                <g id="Background---Tab">
                    <g id="BG">
                        <use fill="black" fill-opacity="1" filter="url(#filter-2)" xlink:href="#path-1"></use>
                        <use fill="#FAFBFC" fill-rule="evenodd" xlink:href="#path-1"></use>
                    </g>
                </g>
            </g>
            <g id="Nav-Bar" transform="translate(842.000000, 72.000000)">
                <g id="Background---Tab">
                    <g id="BG">
                        <use fill="black" fill-opacity="1" filter="url(#filter-4)" xlink:href="#path-3"></use>
                        <use fill="#FAFBFC" fill-rule="evenodd" xlink:href="#path-3"></use>
                    </g>
                </g>
            </g>
            <g id="Group-11" transform="translate(842.000000, 129.000000)">
                <rect id="Rectangle-34-Copy" fill-opacity="0.428300498" fill="#D8D8D8" x="0" y="0" width="438" height="93"></rect>
                <use id="Rectangle-25-Copy-2" stroke="#DCDCDC" mask="url(#mask-6)" stroke-width="2" fill="#F4F4F4" xlink:href="#path-5"></use>
                <g id="noun_89769_cc" transform="translate(359.000000, 59.000000)" fill="#D0021B">
                    <g id="Group">
                        <path d="M12.8941176,3.10588235 C9.97647059,0.188235294 5.17647059,0.188235294 2.25882353,3.10588235 C-0.658823529,6.02352941 -0.658823529,10.8235294 2.25882353,13.7411765 C5.17647059,16.6588235 9.97647059,16.6588235 12.8941176,13.7411765 C15.8117647,10.8235294 15.8117647,6.11764706 12.8941176,3.10588235 L12.8941176,3.10588235 Z M11.4823529,4.51764706 C13.4588235,6.49411765 13.6470588,9.6 12.0470588,11.7647059 L4.23529412,3.85882353 C6.49411765,2.25882353 9.50588235,2.54117647 11.4823529,4.51764706 L11.4823529,4.51764706 Z M3.57647059,12.4235294 C1.6,10.4470588 1.41176471,7.34117647 3.01176471,5.17647059 L10.9176471,13.0823529 C8.56470588,14.6823529 5.55294118,14.4 3.57647059,12.4235294 L3.57647059,12.4235294 Z" id="Shape"></path>
                    </g>
                </g>
            </g>
        </g>
    </g>
</svg>