<?xml version="1.0" encoding="UTF-8" standalone="no"?>
<svg width="102px" height="102px" viewBox="0 0 102 102" version="1.1" xmlns="http://www.w3.org/2000/svg" xmlns:xlink="http://www.w3.org/1999/xlink">
    <!-- Generator: Sketch 3.6.1 (26313) - http://www.bohemiancoding.com/sketch -->
    <title>Oval 357</title>
    <desc>Created with Sketch.</desc>
    <defs>
        <filter x="-50%" y="-50%" width="200%" height="200%" filterUnits="objectBoundingBox" id="filter-1">
            <feOffset dx="0" dy="10" in="SourceAlpha" result="shadowOffsetOuter1"></feOffset>
            <feGaussianBlur stdDeviation="20" in="shadowOffsetOuter1" result="shadowBlurOuter1"></feGaussianBlur>
            <feColorMatrix values="0 0 0 0 0   0 0 0 0 0   0 0 0 0 0  0 0 0 0.175 0" in="shadowBlurOuter1" type="matrix" result="shadowMatrixOuter1"></feColorMatrix>
            <feMerge>
                <feMergeNode in="shadowMatrixOuter1"></feMergeNode>
                <feMergeNode in="SourceGraphic"></feMergeNode>
            </feMerge>
        </filter>
        <filter x="-50%" y="-50%" width="200%" height="200%" filterUnits="objectBoundingBox" id="filter-2">
            <feOffset dx="1" dy="7" in="SourceAlpha" result="shadowOffsetOuter1"></feOffset>
            <feGaussianBlur stdDeviation="10.5" in="shadowOffsetOuter1" result="shadowBlurOuter1"></feGaussianBlur>
            <feColorMatrix values="0 0 0 0 0   0 0 0 0 0   0 0 0 0 0  0 0 0 0.175 0" in="shadowBlurOuter1" type="matrix" result="shadowMatrixOuter1"></feColorMatrix>
            <feMerge>
                <feMergeNode in="shadowMatrixOuter1"></feMergeNode>
                <feMergeNode in="SourceGraphic"></feMergeNode>
            </feMerge>
        </filter>
        <rect id="path-3" x="375" y="146" width="490" height="400" rx="20"></rect>
    </defs>
    <g id="Page-1" stroke="none" stroke-width="1" fill="none" fill-rule="evenodd">
        <g id="09-Edit-Can-Drop-off" transform="translate(-424.000000, -357.000000)">
            <g id="BG" transform="translate(-13.000000, -89.000000)">
                <rect id="Greyscale---©-Google-Maps" x="0" y="86.6704312" width="866" height="1394.32957"></rect>
            </g>
            <g id="Record-Button-Copy" filter="url(#filter-1)" transform="translate(485.000000, 424.000000)">
                <circle id="BG" fill="#FAFBFC" cx="14" cy="14" r="14"></circle>
                <ellipse id="Icon" fill="#4A90E2" cx="14" cy="14" rx="10.0889306" ry="10.0889306"></ellipse>
            </g>
            <rect id="Rectangle-161-Copy" fill-opacity="0.74000001" fill="#000000" x="1" y="2" width="1280" height="766"></rect>
            <mask id="mask-4" fill="white">
                <use xlink:href="#path-3"></use>
            </mask>
            <use id="BG-Copy" fill="#FAFBFC" filter="url(#filter-2)" xlink:href="#path-3"></use>
            <circle id="Oval-357" fill="#F6A623" mask="url(#mask-4)" cx="475" cy="408" r="51"></circle>
            <g id="Group" transform="translate(446.000000, 384.000000)" fill="#FAFBFC">
                <path d="M51.396,8.741 L41.696,8.741 L41.696,34.479 L42.306,34.479 C43.119,30.547 46.599,27.594 50.77,27.594 C54.94,27.594 58.42,30.547 59.233,34.479 L60,34.479 L60,20.24 L51.396,8.741 L51.396,8.741 Z M57.888,24.777 L43.65,24.777 L43.65,11.478 L50.378,11.478 L57.888,21.257 L57.888,24.777 L57.888,24.777 Z" id="Shape"></path>
                <path d="M33.95,0.997 L6.649,0.997 L6.649,18.833 L33.95,18.833 L33.95,0.997 L33.95,0.997 Z M22.764,8.741 L22.764,16.095 L17.758,16.095 L17.758,8.741 L15.488,8.741 L20.3,4.517 L25.112,8.741 L22.764,8.741 L22.764,8.741 Z" id="Shape" transform="translate(20.299500, 9.915000) rotate(-180.000000) translate(-20.299500, -9.915000) "></path>
                <circle id="Oval" cx="12.869" cy="36.237" r="6.767"></circle>
                <circle id="Oval" cx="50.77" cy="36.237" r="6.767"></circle>
                <path d="M0,34.479 L4.405,34.479 C5.218,30.547 8.698,27.594 12.869,27.594 C17.039,27.594 20.519,30.547 21.332,34.479 L39.27,34.479 L39.27,20.552 L0,20.552 L0,34.479 L0,34.479 Z" id="Shape"></path>
            </g>
        </g>
    </g>
</svg>