<?xml version="1.0" encoding="UTF-8" standalone="no"?>
<svg width="13px" height="15px" viewBox="0 0 13 15" version="1.1" xmlns="http://www.w3.org/2000/svg" xmlns:xlink="http://www.w3.org/1999/xlink">
    <!-- Generator: Sketch 3.6.1 (26313) - http://www.bohemiancoding.com/sketch -->
    <title>noun_404_cc</title>
    <desc>Created with Sketch.</desc>
    <defs>
        <filter x="-50%" y="-50%" width="200%" height="200%" filterUnits="objectBoundingBox" id="filter-1">
            <feOffset dx="0" dy="10" in="SourceAlpha" result="shadowOffsetOuter1"></feOffset>
            <feGaussianBlur stdDeviation="20" in="shadowOffsetOuter1" result="shadowBlurOuter1"></feGaussianBlur>
            <feColorMatrix values="0 0 0 0 0   0 0 0 0 0   0 0 0 0 0  0 0 0 0.175 0" in="shadowBlurOuter1" type="matrix" result="shadowMatrixOuter1"></feColorMatrix>
            <feMerge>
                <feMergeNode in="shadowMatrixOuter1"></feMergeNode>
                <feMergeNode in="SourceGraphic"></feMergeNode>
            </feMerge>
        </filter>
    </defs>
    <g id="Page-1" stroke="none" stroke-width="1" fill="none" fill-rule="evenodd">
        <g id="01-Main" transform="translate(-866.000000, -189.000000)">
            <g id="Nav-Bar" transform="translate(842.000000, 72.000000)" filter="url(#filter-1)" fill="#FAFBFC">
                <g id="Background---Tab">
                    <rect id="BG" x="0" y="0" width="439" height="992"></rect>
                </g>
            </g>
            <rect id="Rectangle-34-Copy" fill-opacity="0.428300498" fill="#D8D8D8" x="842" y="129" width="439" height="93"></rect>
            <rect id="Rectangle-7-Copy-2" stroke="#DCDCDC" fill="#FAFBFC" x="853" y="180" width="192" height="34" rx="9"></rect>
            <g id="noun_404_cc" transform="translate(866.000000, 189.000000)" fill="#434343">
                <g id="Date">
                    <g id="Group-18">
                        <path d="M0,4.72727273 L0,13.5770227 C0,14.2375114 0.529159091,14.7727273 1.18181818,14.7727273 L11.8181818,14.7727273 C12.4708409,14.7727273 13,14.2375114 13,13.5770227 L13,4.72727273 L0,4.72727273 L0,4.72727273 Z M3.48636364,13.8863636 L0.886363636,13.8863636 L0.886363636,11.5227273 L3.48636364,11.5227273 L3.48636364,13.8863636 L3.48636364,13.8863636 Z M3.48636364,10.9318182 L0.886363636,10.9318182 L0.886363636,8.56818182 L3.48636364,8.56818182 L3.48636364,10.9318182 L3.48636364,10.9318182 Z M3.48636364,7.97727273 L0.886363636,7.97727273 L0.886363636,5.61363636 L3.48636364,5.61363636 L3.48636364,7.97727273 L3.48636364,7.97727273 Z M6.44090909,13.8863636 L3.84090909,13.8863636 L3.84090909,11.5227273 L6.44090909,11.5227273 L6.44090909,13.8863636 L6.44090909,13.8863636 Z M6.44090909,10.9318182 L3.84090909,10.9318182 L3.84090909,8.56818182 L6.44090909,8.56818182 L6.44090909,10.9318182 L6.44090909,10.9318182 Z M6.44090909,7.97727273 L3.84090909,7.97727273 L3.84090909,5.61363636 L6.44090909,5.61363636 L6.44090909,7.97727273 L6.44090909,7.97727273 Z M9.39545455,13.8863636 L6.79545455,13.8863636 L6.79545455,11.5227273 L9.39545455,11.5227273 L9.39545455,13.8863636 L9.39545455,13.8863636 Z M9.39545455,10.9318182 L6.79545455,10.9318182 L6.79545455,8.56818182 L9.39545455,8.56818182 L9.39545455,10.9318182 L9.39545455,10.9318182 Z M9.39545455,7.97727273 L6.79545455,7.97727273 L6.79545455,5.61363636 L9.39545455,5.61363636 L9.39545455,7.97727273 L9.39545455,7.97727273 Z M12.35,13.8863636 L9.75,13.8863636 L9.75,11.5227273 L12.35,11.5227273 L12.35,13.8863636 L12.35,13.8863636 Z M12.35,10.9318182 L9.75,10.9318182 L9.75,8.56818182 L12.35,8.56818182 L12.35,10.9318182 L12.35,10.9318182 Z M12.35,7.97727273 L9.75,7.97727273 L9.75,5.61363636 L12.35,5.61363636 L12.35,7.97727273 L12.35,7.97727273 Z" id="Shape"></path>
                        <path d="M11.8181818,1.77272727 L9.89772727,1.77272727 L9.89772727,0.443181818 C9.89772727,0.198397727 9.69918182,0 9.45454545,0 C9.20976136,0 9.01136364,0.198397727 9.01136364,0.443181818 L9.01136364,1.77272727 L3.98863636,1.77272727 L3.98863636,0.443181818 C3.98863636,0.198397727 3.79009091,0 3.54545455,0 C3.30067045,0 3.10227273,0.198397727 3.10227273,0.443181818 L3.10227273,1.77272727 L1.18181818,1.77272727 C0.529159091,1.77272727 0,2.30794318 0,2.96828409 L0,3.98863636 L0,3.98863636 L0,4.13636364 L13,4.13636364 L13,3.98863636 L13,3.98863636 L13,2.96828409 C13,2.30794318 12.4708409,1.77272727 11.8181818,1.77272727 L11.8181818,1.77272727 Z M3.95909091,3.84090909 C3.24127424,3.84090909 2.65909091,3.44396591 2.65909091,2.95454545 C2.65909091,2.62673864 2.92104091,2.34118182 3.30909091,2.18784091 L3.30909091,2.95454545 C3.30909091,3.19932955 3.60007424,3.39772727 3.95909091,3.39772727 C4.31789091,3.39772727 4.60909091,3.19932955 4.60909091,2.95454545 L4.60909091,2.18769318 C4.99735758,2.34103409 5.25909091,2.62673864 5.25909091,2.95454545 C5.25909091,3.44396591 4.67712424,3.84090909 3.95909091,3.84090909 L3.95909091,3.84090909 Z M9.86818182,3.84090909 C9.15036515,3.84090909 8.56818182,3.44396591 8.56818182,2.95454545 C8.56818182,2.62673864 8.83013182,2.34118182 9.21818182,2.18784091 L9.21818182,2.95454545 C9.21818182,3.19932955 9.50916515,3.39772727 9.86818182,3.39772727 C10.2269818,3.39772727 10.5181818,3.19932955 10.5181818,2.95454545 L10.5181818,2.18769318 C10.9064485,2.34103409 11.1681818,2.62673864 11.1681818,2.95454545 C11.1681818,3.44396591 10.5862152,3.84090909 9.86818182,3.84090909 L9.86818182,3.84090909 Z" id="Shape"></path>
                    </g>
                </g>
            </g>
        </g>
    </g>
</svg>