<?xml version="1.0" encoding="UTF-8" standalone="no"?>
<svg width="26px" height="26px" viewBox="0 0 26 26" version="1.1" xmlns="http://www.w3.org/2000/svg" xmlns:xlink="http://www.w3.org/1999/xlink">
    <!-- Generator: Sketch 3.6.1 (26313) - http://www.bohemiancoding.com/sketch -->
    <title>Group 13 Copy 2</title>
    <desc>Created with Sketch.</desc>
    <defs>
        <filter x="-50%" y="-50%" width="200%" height="200%" filterUnits="objectBoundingBox" id="filter-1">
            <feOffset dx="0" dy="10" in="SourceAlpha" result="shadowOffsetOuter1"></feOffset>
            <feGaussianBlur stdDeviation="20" in="shadowOffsetOuter1" result="shadowBlurOuter1"></feGaussianBlur>
            <feColorMatrix values="0 0 0 0 0   0 0 0 0 0   0 0 0 0 0  0 0 0 0.175 0" in="shadowBlurOuter1" type="matrix" result="shadowMatrixOuter1"></feColorMatrix>
            <feMerge>
                <feMergeNode in="shadowMatrixOuter1"></feMergeNode>
                <feMergeNode in="SourceGraphic"></feMergeNode>
            </feMerge>
        </filter>
        <filter x="-50%" y="-50%" width="200%" height="200%" filterUnits="objectBoundingBox" id="filter-2">
            <feOffset dx="0" dy="10" in="SourceAlpha" result="shadowOffsetOuter1"></feOffset>
            <feGaussianBlur stdDeviation="20" in="shadowOffsetOuter1" result="shadowBlurOuter1"></feGaussianBlur>
            <feColorMatrix values="0 0 0 0 0   0 0 0 0 0   0 0 0 0 0  0 0 0 0.175 0" in="shadowBlurOuter1" type="matrix" result="shadowMatrixOuter1"></feColorMatrix>
            <feMerge>
                <feMergeNode in="shadowMatrixOuter1"></feMergeNode>
                <feMergeNode in="SourceGraphic"></feMergeNode>
            </feMerge>
        </filter>
    </defs>
    <g id="Page-1" stroke="none" stroke-width="1" fill="none" fill-rule="evenodd">
        <g id="01-Main" transform="translate(-1162.000000, -435.000000)">
            <g id="Nav-Bar" transform="translate(949.000000, 72.000000)" filter="url(#filter-1)" fill="#FAFBFC">
                <g id="Background---Tab">
                    <rect id="BG" x="0" y="0" width="332" height="952"></rect>
                </g>
            </g>
            <g id="Nav-Bar" transform="translate(842.000000, 72.000000)" filter="url(#filter-2)" fill="#FAFBFC">
                <g id="Background---Tab">
                    <rect id="BG" x="0" y="0" width="439" height="992"></rect>
                </g>
            </g>
            <g id="Group-5-Copy-3" transform="translate(865.000000, 432.000000)">
                <g id="Group-2" transform="translate(0.000000, 3.000000)"></g>
            </g>
            <g id="Group-13-Copy-2" transform="translate(1162.000000, 435.000000)">
                <g id="Group-12-Copy" fill="#D0021B">
                    <g id="Group-7-Copy-3">
                        <path d="M13,26 C20.1797017,26 26,20.1797017 26,13 C26,5.82029825 20.1797017,0 13,0 C5.82029825,0 0,5.82029825 0,13 C0,20.1797017 5.82029825,26 13,26 Z" id="Oval-38-Copy-2"></path>
                    </g>
                </g>
                <g id="noun_89769_cc" transform="translate(5.000000, 4.000000)" fill="#FAFBFC">
                    <g id="Group">
                        <path d="M13.7,3.3 C10.6,0.2 5.5,0.2 2.4,3.3 C-0.7,6.4 -0.7,11.5 2.4,14.6 C5.5,17.7 10.6,17.7 13.7,14.6 C16.8,11.5 16.8,6.5 13.7,3.3 L13.7,3.3 Z M12.2,4.8 C14.3,6.9 14.5,10.2 12.8,12.5 L4.5,4.1 C6.9,2.4 10.1,2.7 12.2,4.8 L12.2,4.8 Z M3.8,13.2 C1.7,11.1 1.5,7.8 3.2,5.5 L11.6,13.9 C9.1,15.6 5.9,15.3 3.8,13.2 L3.8,13.2 Z" id="Shape"></path>
                    </g>
                </g>
            </g>
        </g>
    </g>
</svg>