<svg xmlns="http://www.w3.org/2000/svg" width="20" height="18" viewBox="0 0 20 18">
    <path fill="#FFF" d="M10 12c1.657 0 3 1.343 3 3s-1.343 3-3 3-3-1.343-3-3 1.343-3 3-3zM4 8c0 2.042 1.02 3.846 2.579 4.93-.357.584-.566 1.268-.578 2C3.609 13.547 2 10.96 2 8l.001-.127c.32.083.655.127.999.127.346 0 .682-.044 1.003-.127C4 7.914 4 7.957 4 8zm13 0c.345 0 .68-.044.999-.126L18 8c0 2.961-1.61 5.547-4 6.93V15c0-.758-.21-1.467-.577-2.071C14.98 11.846 16 10.042 16 8l-.003-.127c.32.083.657.127 1.003.127zm0-7c1.657 0 3 1.343 3 3s-1.343 3-3 3-3-1.343-3-3 1.343-3 3-3zM3 1c1.657 0 3 1.343 3 3S4.657 7 3 7 0 5.657 0 4s1.343-3 3-3zm7-1c1.529 0 2.957.429 4.172 1.173-.474.472-.829 1.063-1.018 1.723C12.24 2.328 11.158 2 10 2s-2.24.328-3.156.896c-.187-.66-.542-1.25-1.015-1.723C7.043.429 8.471 0 10 0z"/>
</svg>
