<svg viewBox="0 0 64 64" fill="none"
    xmlns="http://www.w3.org/2000/svg">
    <path fill="currentColor" d="M16.0003 5.33301C14.5858 5.33301 13.2293 5.89491 12.2291 6.8951C11.2289 7.8953 10.667 9.25185 10.667 10.6663V53.333C10.667 54.7475 11.2289 56.104 12.2291 57.1042C13.2293 58.1044 14.5858 58.6663 16.0003 58.6663H48.0003C49.4148 58.6663 50.7714 58.1044 51.7716 57.1042C52.7718 56.104 53.3337 54.7475 53.3337 53.333V21.333L37.3337 5.33301H16.0003ZM16.0003 10.6663H34.667V23.9997H48.0003V53.333H16.0003V10.6663ZM21.3337 31.9997V37.333H42.667V31.9997H21.3337ZM21.3337 42.6663V47.9997H34.667V42.6663H21.3337Z"/>
</svg>
