<svg xmlns="http://www.w3.org/2000/svg" viewBox="0 0 22 22">
    <path fill="#C4CDD5" fill-rule="nonzero" d="M11 0C4.936 0 0 4.936 0 11s4.936 11 11 11 11-4.936 11-11S17.064 0 11 0zm0 1.833A9.153 9.153 0 0 1 20.167 11 9.153 9.153 0 0 1 11 20.167 9.153 9.153 0 0 1 1.833 11 9.153 9.153 0 0 1 11 1.833zM11 5.5a3.68 3.68 0 0 0-3.667 3.667h1.834A1.82 1.82 0 0 1 11 7.333a1.82 1.82 0 0 1 1.833 1.834 1.63 1.63 0 0 1-1.117 1.547l-.372.114a1.855 1.855 0 0 0-1.26 1.748v1.174h1.833v-1.174l.372-.115a3.49 3.49 0 0 0 2.378-3.294A3.68 3.68 0 0 0 11 5.5zm-.917 9.167V16.5h1.834v-1.833h-1.834z"/>
</svg>
