<svg width="16" height="16" viewBox="0 0 16 16" fill="none" xmlns="http://www.w3.org/2000/svg">
<path d="M8 5.3335V8.66683L5.14667 10.3602L4.66667 9.5535L7 8.16683V5.3335H8Z" fill="#919EAB"/>
<path d="M7.33301 2C10.6463 2 13.333 4.68667 13.333 8H15.333L12.7397 10.5933L12.693 10.6867L9.99967 8H11.9997C11.9997 5.42 9.91301 3.33333 7.33301 3.33333C4.75301 3.33333 2.66634 5.42 2.66634 8C2.66634 10.58 4.75301 12.6667 7.33301 12.6667C8.61967 12.6667 9.78634 12.14 10.6263 11.2933L11.573 12.24C10.4863 13.3267 8.99301 14 7.33301 14C4.01967 14 1.33301 11.3133 1.33301 8C1.33301 4.68667 4.01967 2 7.33301 2Z" fill="#919EAB"/>
</svg>
