<?xml version="1.0" encoding="UTF-8"?>
<svg width="61px" height="82px" viewBox="0 0 61 82" version="1.1" xmlns="http://www.w3.org/2000/svg" xmlns:xlink="http://www.w3.org/1999/xlink">
    <title>Invoicing icon</title>
    <g id="Invoicing" stroke="none" stroke-width="1" fill="none" fill-rule="evenodd">
        <g id="Order-Process---Invoicing-screen-2" transform="translate(-1174.000000, -532.000000)">
            <g id="Invoicing-icon" transform="translate(1174.000000, 532.000000)">
                <rect id="Rectangle-Copy-3" fill="#C4CDD5" x="3" y="6" width="54" height="76" rx="2"></rect>
                <rect id="Rectangle" fill="#DAE2EC" x="1" y="3" width="58" height="76" rx="2"></rect>
                <g id="Invoice_icon">
                    <rect id="Rectangle" fill="#F4F6F8" x="0" y="0" width="61" height="76" rx="2"></rect>
                    <rect id="Rectangle" fill="#637381" x="19" y="25" width="22" height="1" rx="0.5"></rect>
                    <rect id="Rectangle" fill="#637381" x="19" y="30" width="22" height="1" rx="0.5"></rect>
                    <rect id="Rectangle" fill="#637381" x="19" y="35" width="22" height="1" rx="0.5"></rect>
                    <path d="M30.84,58.3823529 L30.84,57.6153846 L30.84,57.6153846 C32.28,57.4242424 33,56.7435897 33,55.5734266 C33,54.1282051 32.1529412,53.4055944 30.4588235,53.4055944 L29.4,53.4055944 C28.6235294,53.4055944 28.2352941,53.0792541 28.2352941,52.4265734 C28.2352941,51.7272727 28.8517647,51.3776224 30.0847059,51.3776224 C30.5795259,51.3776224 31.2769438,51.4760627 32.1769597,51.6729434 C32.4173097,51.7255396 32.654778,51.5733172 32.707356,51.3329632 C32.7141968,51.3016914 32.7176471,51.2697735 32.7176471,51.2377622 L32.7176471,51.1804099 C32.7175954,50.8856069 32.5099924,50.6315783 32.221093,50.5728763 C31.6324787,50.4532746 31.1721144,50.3811969 30.84,50.3566434 L30.84,49.6176471 C30.84,49.27653 30.56347,49 30.2223529,49 C29.8812359,49 29.6047059,49.27653 29.6047059,49.6176471 L29.6047059,50.3426573 L29.6047059,50.3426573 C27.8682353,50.4452214 27,51.1398601 27,52.4265734 C27,53.8717949 27.8,54.5944056 29.4,54.5944056 L30.4588235,54.5944056 C31.2823529,54.5944056 31.6941176,54.9207459 31.6941176,55.5734266 C31.6941176,56.2727273 31.1035294,56.6223776 29.9223529,56.6223776 C29.4247565,56.6223776 28.7249968,56.5238801 27.8230738,56.3268851 C27.5826298,56.2743513 27.3451345,56.4266984 27.2926168,56.667146 C27.285794,56.6983832 27.2823529,56.7302641 27.2823529,56.7622378 L27.2823529,56.8130342 C27.2823636,57.1107165 27.4939329,57.3663827 27.786359,57.4220762 C28.5667026,57.5706951 29.1728183,57.6514483 29.6047059,57.6643357 L29.6047059,58.3823529 C29.6047059,58.72347 29.8812359,59 30.2223529,59 C30.56347,59 30.84,58.72347 30.84,58.3823529 Z" id="$" fill="#637381" fill-rule="nonzero"></path>
                </g>
            </g>
        </g>
    </g>
</svg>
