<svg width="20" height="20" viewBox="0 0 24 24" xmlns="http://www.w3.org/2000/svg">
  <path fill="#FFF" clip-rule="evenodd" d="M20.4859 12C20.4859 12.3713 20.4576 12.7287 20.4152 13.0725L22.7771 14.8875C23.0034 15.0525 23.06 15.3412 22.9185 15.5887L20.6556 19.3975C20.5142 19.645 20.2172 19.7413 19.9626 19.645L17.1481 18.545C16.5682 18.9713 15.9318 19.3425 15.2388 19.6175L14.8145 22.5325C14.7862 22.8075 14.5458 23 14.2629 23H9.73709C9.45423 23 9.22793 22.8075 9.17136 22.5325L8.74707 19.6175C8.05405 19.3425 7.43175 18.985 6.83774 18.545L4.02324 19.645C3.76866 19.7275 3.47166 19.645 3.33022 19.3975L1.06731 15.5887C0.940026 15.355 0.996599 15.0525 1.20875 14.8875L3.59895 13.0725C3.54237 12.7287 3.51409 12.3575 3.51409 12C3.51409 11.6425 3.55652 11.2712 3.61309 10.9275L1.22289 9.1125C0.996599 8.9475 0.940026 8.65875 1.08146 8.41125L3.34437 4.6025C3.4858 4.355 3.78281 4.25875 4.03738 4.355L6.85188 5.455C7.43175 5.02875 8.06819 4.6575 8.76121 4.3825L9.1855 1.4675C9.22793 1.1925 9.45423 1 9.73709 1H14.2629C14.5458 1 14.7862 1.1925 14.8286 1.4675L15.2529 4.3825C15.9459 4.6575 16.5682 5.015 17.1623 5.455L19.9768 4.355C20.2313 4.2725 20.5283 4.355 20.6698 4.6025L22.9327 8.41125C23.06 8.645 23.0034 8.9475 22.7913 9.1125L20.4011 10.9275C20.4576 11.2712 20.4859 11.6287 20.4859 12ZM12.6442 16.7867H12.6901C14.1875 16.7867 15.4057 15.5685 15.4057 14.0711C15.4057 12.5737 14.1875 11.3555 12.6901 11.3555H11.3093C10.5227 11.3555 9.88281 10.7155 9.88281 9.92895C9.88281 9.14232 10.5227 8.50238 11.3093 8.50238H14.0708C14.4268 8.50238 14.7154 8.21381 14.7154 7.85785C14.7154 7.5019 14.4268 7.21332 14.0708 7.21332H12.6442V5.78676C12.6442 5.43081 12.3557 5.14223 11.9997 5.14223C11.6438 5.14223 11.3552 5.43081 11.3552 5.78676V7.21332H11.3093C9.812 7.21332 8.59375 8.43153 8.59375 9.92895C8.59375 11.4263 9.81196 12.6445 11.3093 12.6445H12.6901C13.4767 12.6445 14.1167 13.2845 14.1167 14.0711C14.1167 14.8577 13.4768 15.4977 12.6902 15.4977H9.92866C9.57275 15.4977 9.28413 15.7862 9.28413 16.1422C9.28413 16.4981 9.57275 16.7867 9.92866 16.7867H11.3552V18.2133C11.3552 18.5693 11.6438 18.8579 11.9997 18.8579C12.3557 18.8579 12.6442 18.5693 12.6442 18.2133V16.7867Z" />
</svg>
