<svg xmlns="http://www.w3.org/2000/svg" width="20" height="19" viewBox="0 0 20 19">
    <path fill="#FFF" fill-rule="nonzero" d="M19.722 8.817l-1.82-1.87.367-2.575a.983.983 0 0 0-.808-1.105l-2.578-.45L13.657.522A.99.99 0 0 0 12.352.1l-2.351 1.142L7.649.1a.99.99 0 0 0-1.305.422L5.117 2.82l-2.577.449a.982.982 0 0 0-.808 1.104l.366 2.575-1.82 1.87a.976.976 0 0 0 0 1.365l1.82 1.869-.366 2.575a.983.983 0 0 0 .808 1.105l2.577.45 1.227 2.296a.991.991 0 0 0 1.306.422L10 17.757l2.352 1.142a.991.991 0 0 0 1.307-.422l1.226-2.297 2.578-.449a.983.983 0 0 0 .807-1.105l-.366-2.575 1.82-1.87a.98.98 0 0 0-.002-1.364zM9.045 13.693L5.502 10.17l1.351-1.343 2.192 2.178 5.059-5.028 1.352 1.343-6.411 6.372z"/>
</svg>
