<svg xmlns="http://www.w3.org/2000/svg" width="19" height="19" viewBox="0 0 19 19">
    <path fill="#FFF" fill-rule="nonzero" d="M16.32 0c1.056 0 1.92.864 1.92 1.92v6.72l-9.024 9.024a1.913 1.913 0 0 1-2.736 0L.576 11.76a1.913 1.913 0 0 1 0-2.736L9.6 0zM13.2 4.944l-.816.816c-.48-.432-1.92-1.104-3.072.048-1.92 1.92 1.008 3.888-.192 5.088-.096.096-.672.672-1.392-.048-.864-.816-.096-1.584.096-1.776L6.72 7.968c-1.68 1.632-.384 3.216-.192 3.456l-.768.768.576.576.768-.768c.288.24 1.728 1.344 3.072 0 1.92-1.92-1.008-3.888.288-5.136.096-.096.672-.672 1.344 0 .576.624.048 1.344-.24 1.632L12.672 9.6c1.44-1.44.672-2.784.336-3.216l.816-.816-.624-.624zm2.16-3.024a.963.963 0 0 0-.96.96c0 .528.432.96.96.96s.96-.432.96-.96a.963.963 0 0 0-.96-.96z"/>
</svg>
