<svg width="19" height="19" viewBox="0 0 19 19" fill="none" xmlns="http://www.w3.org/2000/svg">
  <path clip-rule="evenodd" d="m4.99935,2.5l9.99995,0l0,3.33333l-9.99995,0l0,-3.33333zm-0.83333,4.16667l11.66668,0c1.3833,0 2.5,1.11666 2.5,2.5l0,5.00003l-3.3334,0l0,3.3333l-9.99995,0l0,-3.3333l-3.33333,0l0,-5.00003c0,-1.38334 1.11666,-2.5 2.5,-2.5zm2.5,9.16663l6.66668,0l0,-4.16663l-6.66668,0l0,4.16663zm9.16668,-5.8333c-0.4584,0 -0.8334,-0.375 -0.8334,-0.83333c0,-0.45834 0.375,-0.83334 0.8334,-0.83334c0.4583,0 0.8333,0.375 0.8333,0.83334c0,0.45833 -0.375,0.83333 -0.8333,0.83333z" fill="#E87900" fill-rule="evenodd" />
</svg>
