<svg width="32" height="32" viewBox="0 0 32 32" fill="none" xmlns="http://www.w3.org/2000/svg">
<path d="M16 7H22.0004V12.3335H27.8859L32.0004 18.4793V27.3335H28.6671C28.6671 29.176 27.1762 30.6668 25.3338 30.6668C23.4913 30.6668 22.0004 29.176 22.0004 27.3335H17.0004C17.0004 29.176 15.5095 30.6668 13.6671 30.6668C11.8247 30.6668 10.3338 29.176 10.3338 27.3335H4V22.6668V20H7V24.0002H19V10H16V7Z" fill="#E87900"/>
<path d="M7 1V3.45454C12.5793 3.45454 15.9024 9.26363 12.8242 13.6164L10.9178 11.8327C12.352 9.11636 10.2357 5.90909 7 5.90909V8.36363L3.06474 4.68182L7 1ZM7 19V16.5454C1.42068 16.5454 -1.90243 10.7364 1.17582 6.38363L3.08223 8.16727C1.64805 10.8836 3.76434 14.0909 7 14.0909V11.6364L10.9353 15.3182L7 19Z" fill="#E87900"/>
</svg>
