<svg width="20" height="20" viewBox="0 0 24 24" fill="none" xmlns="http://www.w3.org/2000/svg">
<path d="M3.29855 19.608C3.50053 19.9613 3.78947 20.2547 4.13677 20.4591C4.48406 20.6634 4.87765 20.7717 5.27855 20.7731H9.73575L8.96135 19.81C8.65433 19.4267 8.48661 18.9469 8.48661 18.4518C8.48661 17.9568 8.65433 17.477 8.96135 17.0937L9.79955 16.0655H7.02755C6.89897 16.0654 6.77271 16.0306 6.66152 15.9647C6.55033 15.8988 6.45816 15.8041 6.39432 15.6903C6.33048 15.5764 6.29723 15.4473 6.29794 15.3161C6.29865 15.1849 6.33328 15.0562 6.39835 14.9431L7.84155 12.3659L9.44755 13.302C9.48456 13.324 9.52734 13.3337 9.56999 13.3298C9.61263 13.3259 9.65304 13.3086 9.68564 13.2803C9.71823 13.2519 9.7414 13.214 9.75196 13.1716C9.76251 13.1293 9.75992 13.0847 9.74455 13.0439L7.86795 8.01531C7.84418 7.94963 7.80131 7.89293 7.74508 7.85281C7.68886 7.81269 7.62196 7.79106 7.55335 7.79082H7.49615L2.29755 8.7C2.25809 8.70919 2.22214 8.73 2.19416 8.75984C2.16618 8.78968 2.14739 8.82724 2.14013 8.86787C2.13287 8.9085 2.13745 8.95041 2.15331 8.98841C2.16917 9.02641 2.19561 9.05882 2.22935 9.08163L3.84195 10.0222L1.52315 14.1731C1.32117 14.53 1.21484 14.935 1.21484 15.3471C1.21484 15.7593 1.32117 16.1643 1.52315 16.5212L3.29855 19.608Z" fill="white"/>
<path d="M12.5318 10.0963L17.7348 10.9719H17.7898C17.8588 10.9721 17.9262 10.9507 17.9828 10.9105C18.0395 10.8704 18.0827 10.8134 18.1066 10.7474L19.9568 5.71431C19.9722 5.67353 19.9748 5.62888 19.9642 5.58654C19.9537 5.5442 19.9305 5.50624 19.8979 5.47791C19.8653 5.44957 19.8249 5.43226 19.7822 5.42836C19.7396 5.42447 19.6968 5.43417 19.6598 5.45614L18.0538 6.40573L15.7108 2.27737C15.5087 1.9211 15.2184 1.62531 14.8689 1.41964C14.5195 1.21396 14.1232 1.10564 13.7198 1.10553H10.2152C9.81136 1.1061 9.41478 1.2151 9.0653 1.42158C8.71581 1.62806 8.42573 1.92476 8.2242 2.28186L6 6.23512L7.2012 6.02635C7.67984 5.94291 8.17202 6.03159 8.59372 6.27724C9.01541 6.52289 9.34047 6.91029 9.5134 7.37328L9.971 8.60124L11.3394 6.17451C11.4035 6.06079 11.4958 5.96627 11.607 5.90047C11.7182 5.83466 11.8444 5.79988 11.973 5.79961C12.1001 5.79912 12.2252 5.83239 12.3359 5.89616C12.4466 5.95992 12.5391 6.05198 12.6044 6.16328L14.0674 8.74492L12.4614 9.69451C12.4199 9.7141 12.386 9.74717 12.3649 9.78853C12.3438 9.82989 12.3367 9.87723 12.3447 9.92313C12.3528 9.96904 12.3755 10.0109 12.4093 10.0423C12.4432 10.0736 12.4862 10.0926 12.5318 10.0963Z" fill="white"/>
<path d="M19.5415 11.6027C19.4105 11.9665 19.1594 12.2723 18.8314 12.4677C18.5034 12.6632 18.119 12.7359 17.7441 12.6735L16.1579 12.3974L17.6099 14.9745C17.6759 15.0892 17.7106 15.2198 17.7105 15.3527C17.7103 15.4857 17.6754 15.6162 17.6092 15.7307C17.5429 15.8452 17.4479 15.9395 17.3339 16.0039C17.22 16.0684 17.0912 16.1005 16.9609 16.097H14.0547V14.2001C14.0548 14.1712 14.049 14.1426 14.0378 14.1161C14.0266 14.0895 14.0102 14.0656 13.9896 14.0459C13.9689 14.0261 13.9445 14.0108 13.9179 14.0011C13.8913 13.9913 13.863 13.9872 13.8347 13.989C13.8042 13.9891 13.7741 13.9962 13.7467 14.0098C13.7193 14.0234 13.6952 14.0432 13.6763 14.0676L10.3389 18.2229C10.289 18.2845 10.2617 18.3619 10.2617 18.4418C10.2617 18.5217 10.289 18.5991 10.3389 18.6607L13.6873 22.8182C13.7062 22.8426 13.7303 22.8624 13.7577 22.876C13.7851 22.8896 13.8152 22.8967 13.8457 22.8968C13.874 22.8986 13.9023 22.8945 13.9289 22.8848C13.9555 22.875 13.9799 22.8597 14.0006 22.84C14.0212 22.8202 14.0376 22.7963 14.0488 22.7698C14.06 22.7432 14.0658 22.7146 14.0657 22.6858V20.7888H18.7275C19.1315 20.7889 19.5284 20.6804 19.8783 20.4743C20.2282 20.2682 20.5187 19.9718 20.7207 19.6147L22.4807 16.519C22.6827 16.1621 22.789 15.7571 22.789 15.345C22.789 14.9328 22.6827 14.5278 22.4807 14.1709L20.1245 10.0156L19.5415 11.6027Z" fill="white"/>
</svg>
