<svg width="17" height="17" viewBox="0 0 17 17" fill="none" xmlns="http://www.w3.org/2000/svg">
<path fill-rule="evenodd" clip-rule="evenodd" d="M4.21966 7.55044C3.92678 7.86772 3.92678 8.38223 4.21966 8.6995L7.96955 12.7619C8.11618 12.9204 8.308 13 8.5 13C8.69182 13 8.88382 12.9204 9.03026 12.7619L12.7803 8.6995C13.0732 8.38223 13.0732 7.86772 12.7803 7.55044C12.4876 7.23317 12.0127 7.23317 11.7198 7.55044L9.25002 10.2258V0.812487C9.25002 0.363994 8.9142 0 8.5 0C8.08599 0 7.74998 0.363994 7.74998 0.812487V10.226L5.28037 7.55044C4.98749 7.23317 4.51254 7.23317 4.21966 7.55044ZM15.4547 11.7498C15.4547 11.3358 15.8007 11 16.2274 11C16.6542 11 17.0002 11.3358 17 11.7498V14.7501C17 15.0522 16.9395 15.3458 16.8203 15.6228C16.7052 15.8905 16.5406 16.1311 16.3304 16.3375C16.1198 16.5447 15.8741 16.7077 15.6002 16.8215C15.3154 16.94 15.0133 17 14.7022 17H2.31804C2.00527 17 1.70178 16.9407 1.41548 16.8228C1.13941 16.7096 0.891554 16.5474 0.678856 16.3411C0.466158 16.1347 0.299052 15.8943 0.182368 15.6261C0.0614332 15.3481 0 15.0535 0 14.7501V11.7498C0 11.3358 0.345803 11 0.772745 11C1.1993 11 1.5453 11.3358 1.5453 11.7498V14.7501C1.5453 15.1636 1.89207 15.5 2.31804 15.5H14.7022C15.1172 15.5 15.4547 15.1636 15.4547 14.7501V11.7498Z" fill="white"/>
</svg>
