<svg xmlns="http://www.w3.org/2000/svg" viewBox="0 0 20 20" 
    xmlns:xlink="http://www.w3.org/1999/xlink" version="1.1">
    <g fill="none" fill-rule="evenodd" stroke="none" stroke-width="1">
        <g fill="#ffffff" fill-rule="nonzero" transform="translate(-24 -8)">
            <path d="M 41.0711 10.9289 C 39.1823 9.0402 36.6711 8 34 8 C 31.3289 8 28.8177 9.0402 26.9289 10.9289 C 25.0402 12.8177 24 15.3289 24 18 C 24 20.6711 25.0402 23.1823 26.9289 25.0711 C 28.8177 26.9598 31.3289 28 34 28 C 36.6711 28 39.1823 26.9598 41.0711 25.0711 C 42.9598 23.1823 44 20.6711 44 18 C 44 15.3289 42.9598 12.8177 41.0711 10.9289 Z M 34.6904 22.7867 L 34.6445 22.7867 L 34.6445 24.2133 C 34.6445 24.5693 34.356 24.8579 34 24.8579 C 33.6441 24.8579 33.3555 24.5693 33.3555 24.2133 L 33.3555 22.7867 L 31.9289 22.7867 C 31.573 22.7867 31.2844 22.4981 31.2844 22.1422 C 31.2844 21.7862 31.573 21.4977 31.9289 21.4977 L 34.6905 21.4977 C 35.4771 21.4977 36.117 20.8577 36.117 20.0711 C 36.117 19.2845 35.477 18.6445 34.6904 18.6445 L 33.3096 18.6445 C 31.8122 18.6445 30.594 17.4263 30.594 15.9289 C 30.594 14.4315 31.8123 13.2133 33.3096 13.2133 L 33.3555 13.2133 L 33.3555 11.7868 C 33.3555 11.4308 33.6441 11.1422 34 11.1422 C 34.356 11.1422 34.6445 11.4308 34.6445 11.7868 L 34.6445 13.2133 L 36.0711 13.2133 C 36.427 13.2133 36.7157 13.5019 36.7157 13.8579 C 36.7157 14.2138 36.427 14.5024 36.0711 14.5024 L 33.3096 14.5024 C 32.523 14.5024 31.8831 15.1423 31.8831 15.9289 C 31.8831 16.7155 32.523 17.3555 33.3096 17.3555 L 34.6904 17.3555 C 36.1878 17.3555 37.406 18.5737 37.406 20.0711 C 37.406 21.5685 36.1878 22.7867 34.6904 22.7867 Z" />
        </g>
    </g>
</svg>