<svg xmlns="http://www.w3.org/2000/svg" width="20" height="18" viewBox="0 0 20 18">
    <path fill="#FFF"
        d="M5.978 8.811c-1.089.033-1.98.453-2.672 1.259h-1.35c-.551 0-1.015-.133-1.391-.398C.188 9.406 0 9.018 0 8.506c0-2.314.417-3.471 1.25-3.471.04 0 .186.069.439.206.252.138.58.277.982.418.404.141.803.212 1.2.212.45 0 .897-.076 1.34-.226-.033.242-.05.459-.05.649 0 .911.272 1.75.817 2.517zm11.119 6.642c0 .787-.246 1.408-.736 1.864-.49.455-1.143.683-1.956.683h-8.81c-.813 0-1.465-.228-1.956-.683-.49-.456-.736-1.077-.736-1.864 0-.347.012-.687.036-1.018.023-.33.07-.688.14-1.072.071-.383.16-.739.268-1.067.107-.327.252-.647.433-.958.182-.312.39-.577.625-.797.235-.22.523-.395.862-.526.34-.131.714-.197 1.124-.197.067 0 .212.07.434.212.221.14.467.298.735.472.27.173.629.33 1.08.472.45.14.903.211 1.36.211.457 0 .91-.07 1.36-.211.451-.141.81-.299 1.08-.472.268-.174.514-.331.735-.472.222-.141.367-.212.434-.212.41 0 .784.066 1.124.197.34.131.627.306.862.526.235.22.443.485.625.797.181.31.326.63.433.958.108.328.197.684.267 1.067.07.384.118.741.141 1.072.024.331.036.67.036 1.018zM6.452 2.517c0 .695-.252 1.289-.756 1.78-.504.492-1.113.738-1.825.738s-1.32-.246-1.825-.738c-.504-.491-.756-1.085-.756-1.78 0-.694.252-1.288.756-1.78C2.55.247 3.16 0 3.871 0s1.32.246 1.825.738c.504.491.756 1.085.756 1.78zm7.419 3.777c0 1.042-.378 1.932-1.134 2.67C11.98 9.7 11.069 10.07 10 10.07c-1.069 0-1.98-.369-2.737-1.106-.756-.738-1.134-1.628-1.134-2.67 0-1.043.378-1.933 1.134-2.67C8.02 2.886 8.931 2.517 10 2.517c1.069 0 1.98.37 2.737 1.107.756.737 1.134 1.627 1.134 2.67zM20 8.506c0 .512-.188.9-.565 1.166-.376.265-.84.398-1.39.398h-1.351C16 9.264 15.11 8.844 14.022 8.81c.545-.767.817-1.606.817-2.517 0-.19-.017-.407-.05-.65.443.151.89.227 1.34.227.397 0 .796-.07 1.2-.212.403-.14.73-.28.982-.418.253-.137.399-.206.439-.206.833 0 1.25 1.157 1.25 3.471zm-1.29-5.989c0 .695-.252 1.289-.756 1.78-.504.492-1.113.738-1.825.738s-1.32-.246-1.825-.738c-.504-.491-.756-1.085-.756-1.78 0-.694.252-1.288.756-1.78C14.808.247 15.417 0 16.13 0s1.32.246 1.825.738c.504.491.756 1.085.756 1.78z" />
</svg>
